<svg width="43px" height="43px" viewBox="0 0 43 43" version="1.1" xmlns="http://www.w3.org/2000/svg" xmlns:xlink="http://www.w3.org/1999/xlink">
    <g stroke="none" stroke-width="1" fill="none" fill-rule="evenodd">
        <g transform="translate(-105.000000, -42.000000)" fill="#FFFFFF">
            <path d="M146.81,43.25 C145.929019,42.3911476 144.612949,42.1572678 143.49,42.66 L107.49,58.76 C106.321836,59.2840619 105.614999,60.4917294 105.7301,61.7668759 C105.845202,63.0420224 106.756874,64.1035943 108,64.41 L122.33,67.94 L126.83,82.3 C127.207498,83.5046859 128.298789,84.344141 129.56,84.4 L129.7,84.4 C130.909891,84.4013472 132.002176,83.6757863 132.47,82.56 L147.47,46.56 C147.950368,45.4257974 147.688646,44.1132212 146.81,43.25 Z M129.69,81.4 L124.69,65.4 L108.69,61.47 L144.69,45.37 L129.69,81.4 Z" id="Shape"></path>
        </g>
    </g>
</svg>