<svg width="101px" height="135px" viewBox="0 0 101 135" version="1.1" xmlns="http://www.w3.org/2000/svg" xmlns:xlink="http://www.w3.org/1999/xlink">
    <g stroke="none" stroke-width="1" fill="none" fill-rule="evenodd">
        <g transform="translate(-495.000000, -517.000000)">
            <g transform="translate(495.000000, 517.000000)">
                <path d="M16.5921,26.2112 L47.0651,72.9672 L47.0651,90.0346 C16.456,87.3936 -1.032,52.2998 16.5921,26.2112" id="Fill-2" fill="#003A5B"></path>
                <path d="M54.203,90.0346 L54.203,73.3578 L84.8022,26.4033 C102.2208,52.5198 84.5777,87.4106 54.203,90.0346" id="Fill-3" fill="#00ABC6"></path>
                <path d="M79.9113,20.3862 L79.9138,20.3888 L50.7595,65.4273 L21.5998,20.1376 C37.5157,3.9623 64.0673,4.1709 79.9113,20.3862" id="Fill-4" fill="#189ADC"></path>
                <path d="M50.6339,0.9655 C77.2439,0.9655 98.8158,22.5375 98.8158,49.1471 C98.8158,75.7571 77.2439,97.329 50.6339,97.329 C24.0243,97.329 2.4523,75.7571 2.4523,49.1471 C2.4523,22.5375 24.0243,0.9655 50.6339,0.9655 Z M54.203,73.3578 L54.203,90.0346 C85.4918,87.3386 101.854,51.9622 84.8022,26.4033 L54.203,73.3578 Z M47.0651,90.0346 L47.0651,72.9672 L16.5921,26.2112 C-0.6533,51.7578 15.672,87.3295 47.0651,90.0346 Z M21.5998,20.1376 L50.7595,65.4273 L79.9138,20.3888 C64.01,4.1984 37.6396,4.0836 21.5998,20.1376 Z M50.6339,34.7919 C54.5763,34.7919 57.7721,37.9877 57.7721,41.9298 C57.7721,45.8723 54.5763,49.068 50.6339,49.068 C46.6918,49.068 43.496,45.8723 43.496,41.9298 C43.496,37.9877 46.6918,34.7919 50.6339,34.7919 Z" id="Fill-5" fill="#FEFEFE"></path>
                <path d="M0.8454,121.6996 L11.2788,121.6996 L11.2788,119.3327 L3.5261,119.3327 L3.5261,114.5024 L9.8298,114.5024 L9.8298,112.184 L3.5261,112.184 L3.5261,107.4986 L11.2788,107.4986 L11.2788,105.1558 L0.8454,105.1558 L0.8454,121.6996 Z M13.1384,121.6996 L15.8191,121.6996 L15.8191,108.1265 L16.1814,108.1265 L20.094,121.0233 L22.8955,121.0233 L26.8082,108.1265 L27.1704,108.1265 L27.1704,121.6996 L29.8752,121.6996 L29.8752,105.1558 L25.1899,105.1558 L21.4946,118.0769 L17.7997,105.1558 L13.1384,105.1558 L13.1384,121.6996 Z M32.6044,105.1558 L32.6044,121.6996 L39.0771,121.6996 C42.289,121.6996 44.3421,120.3954 44.3421,117.0142 C44.3421,114.7439 43.4002,113.7297 41.9752,113.1741 C43.3035,112.4496 43.9314,111.4594 43.9314,109.4548 C43.9314,106.3877 42.1683,105.1558 38.8837,105.1558 L32.6044,105.1558 Z M38.8837,114.4783 C40.188,114.4783 41.5889,114.9855 41.5889,116.8694 C41.5889,118.8496 40.5984,119.3811 38.9322,119.3811 L35.2852,119.3811 L35.2852,114.4783 L38.8837,114.4783 Z M38.7389,107.4745 C40.3813,107.4745 41.2022,108.1747 41.2022,109.7689 C41.2022,111.3869 40.4777,112.2081 38.8356,112.2081 L35.2852,112.2081 L35.2852,107.4745 L38.7389,107.4745 Z M46.3224,121.6996 L56.7559,121.6996 L56.7559,119.3327 L49.0031,119.3327 L49.0031,114.5024 L55.3068,114.5024 L55.3068,112.184 L49.0031,112.184 L49.0031,107.4986 L56.7559,107.4986 L56.7559,105.1558 L46.3224,105.1558 L46.3224,121.6996 Z M58.6154,121.6996 L61.2962,121.6996 L61.2962,105.1558 L58.6154,105.1558 L58.6154,121.6996 Z M70.6187,115.8067 L73.0095,121.6996 L75.9561,121.6996 L73.2269,115.2029 C74.99,114.3817 75.932,112.7637 75.932,110.4208 C75.932,106.75 73.9755,105.1558 70.3288,105.1558 L64.0494,105.1558 L64.0494,121.6996 L66.7302,121.6996 L66.7302,115.8067 L70.6187,115.8067 Z M73.1787,110.4449 C73.1787,112.1599 72.4057,113.4882 70.3772,113.4882 L66.7302,113.4882 L66.7302,107.4745 L70.3288,107.4745 C72.2609,107.4745 73.1787,108.5613 73.1787,110.4449 Z M76.3184,121.6996 L78.9991,121.6996 L79.8929,118.1492 L86.2447,118.1492 L87.1382,121.6996 L89.8433,121.6996 L85.7373,105.1558 L80.4,105.1558 L76.3184,121.6996 Z M82.4769,107.4019 L83.6845,107.4019 L85.7132,115.7826 L80.4241,115.7826 L82.4769,107.4019 Z M100.4214,121.6996 L100.4214,119.3086 L93.828,119.3086 L93.828,105.1558 L91.1472,105.1558 L91.1472,121.6996 L100.4214,121.6996 Z" id="Fill-6" fill="#003A5B"></path>
                <path d="M42.7071,124.3035 L40.6449,133.2049 L39.8866,133.2049 L37.8242,124.3035 L36.0653,124.3035 L38.6128,134.6911 L41.9185,134.6911 L44.4663,124.3035 L42.7071,124.3035 Z M45.3003,134.6911 L46.9835,134.6911 L46.9835,124.3035 L45.3003,124.3035 L45.3003,134.6911 Z M52.3061,134.6911 C55.7332,134.6911 56.4611,132.6136 56.4611,129.3228 C56.4611,126.093 55.6572,124.3035 52.3061,124.3035 L48.712,124.3035 L48.712,134.6911 L52.3061,134.6911 Z M54.7172,129.3228 C54.7172,131.5976 54.3986,133.2049 52.3061,133.2049 L50.3952,133.2049 L50.3952,125.7744 L52.3061,125.7744 C54.3986,125.7744 54.7172,127.0483 54.7172,129.3228 Z M56.6884,134.6911 L58.3717,134.6911 L58.9326,132.4619 L62.921,132.4619 L63.482,134.6911 L65.1805,134.6911 L62.6024,124.3035 L59.2512,124.3035 L56.6884,134.6911 Z M60.5552,125.7137 L61.3134,125.7137 L62.5873,130.9757 L59.2663,130.9757 L60.5552,125.7137 Z" id="Fill-7" fill="#00ABC6"></path>
            </g>
        </g>
    </g>
</svg>