<svg xmlns="http://www.w3.org/2000/svg" width="21" height="35" viewBox="0 0 21 35">
  <path fill="#015580" d="M5.80350316,13.3615538 L5.06119462,14.1038623 L5.06119462,13.3615538 L5.80350316,13.3615538 Z M5.06119462,9.09327966 C5.06119462,4.06952068 9.17182157,0 14.2388275,0 L19.3000221,0 C19.7099878,0 20.0423307,0.332342855 20.0423307,0.742308544 L20.0423307,7.42308544 C20.0423307,7.83305113 19.7099878,8.16539398 19.3000221,8.16539398 L14.2388275,8.16539398 C13.7153923,8.16539398 13.2940712,8.58250185 13.2940712,9.09327966 L13.2940712,13.3615538 L19.3000221,13.3615538 C19.7836745,13.3615538 20.1381547,13.8166769 20.0197375,14.2856086 L18.3326727,20.9663855 C18.2494361,21.2960024 17.9529214,21.5269478 17.6129573,21.5269478 L13.2940712,21.5269478 L13.2940712,34.146193 C13.2940712,34.5561587 12.9617283,34.8885016 12.5517626,34.8885016 L5.80350316,34.8885016 C5.39353747,34.8885016 5.06119462,34.5561587 5.06119462,34.146193 L5.06119462,21.5269478 L0.742308544,21.5269478 C0.332342855,21.5269478 0,21.1946049 0,20.7846392 L0,14.1038623 C0,13.6938966 0.332342855,13.3615538 0.742308544,13.3615538 L5.06119462,13.3615538 L5.06119462,9.09327966 Z M18.5577136,1.48461709 L14.2388275,1.48461709 C9.98843147,1.48461709 6.5458117,4.89281065 6.5458117,9.09327966 L6.5458117,14.1038623 C6.5458117,14.513828 6.21346885,14.8461709 5.80350316,14.8461709 L1.48461709,14.8461709 L1.48461709,20.0423307 L5.80350316,20.0423307 C6.21346885,20.0423307 6.5458117,20.3746735 6.5458117,20.7846392 L6.5458117,33.4038845 L11.8094541,33.4038845 L11.8094541,20.7846392 C11.8094541,20.3746735 12.141797,20.0423307 12.5517626,20.0423307 L17.034798,20.0423307 L18.3469596,14.8461709 L12.5517626,14.8461709 C12.141797,14.8461709 11.8094541,14.513828 11.8094541,14.1038623 L11.8094541,9.09327966 C11.8094541,7.75921188 12.8987824,6.68077689 14.2388275,6.68077689 L18.5577136,6.68077689 L18.5577136,1.48461709 Z"/>
</svg>
