<svg xmlns="http://www.w3.org/2000/svg" width="33" height="33" viewBox="0 0 33 33">
  <g fill="#015580" fill-rule="evenodd">
    <path fill-rule="nonzero" d="M16.5,33 C7.38730163,33 0,25.6126984 0,16.5 C0,7.38730163 7.38730163,0 16.5,0 C25.6126984,0 33,7.38730163 33,16.5 C33,25.6126984 25.6126984,33 16.5,33 Z M16.5,31 C24.5081289,31 31,24.5081289 31,16.5 C31,8.49187113 24.5081289,2 16.5,2 C8.49187113,2 2,8.49187113 2,16.5 C2,24.5081289 8.49187113,31 16.5,31 Z"/>
    <path fill-rule="nonzero" d="M12.9404139,12.3453173 C12.7522823,12.8645552 12.1788446,13.1329704 11.659605,12.9448394 C11.1403654,12.7567084 10.8719493,12.1832727 11.0600809,11.6640348 C11.975259,9.13816943 14.619048,7.6296141 17.3161149,8.07876826 C20.019611,8.5289931 22.0041158,10.8178227 21.9999936,13.5034467 C21.9999936,15.2284763 20.930335,16.6131778 19.2278285,17.7151478 C18.6703405,18.0759894 18.0793064,18.3820332 17.4887157,18.6368783 C17.1321858,18.7907241 16.849867,18.8951439 16.6768201,18.9511473 C16.1513807,19.1211961 15.5875757,18.8330966 15.4175264,18.3076591 C15.247477,17.7822215 15.5355775,17.2184184 16.0610168,17.0483696 C16.1774136,17.0106999 16.4016213,16.9277734 16.6963399,16.8005997 C17.1911633,16.587079 17.6855433,16.3310838 18.1411084,16.0362132 C19.3330394,15.26472 20.0000433,14.4012656 20.0000445,13.5019123 C20.0026497,11.8041262 18.7354728,10.342627 16.9875781,10.0515426 C15.2332543,9.75938748 13.5239736,10.734709 12.9404139,12.3453173 Z"/>
    <circle cx="16" cy="23" r="1"/>
  </g>
</svg>
