<svg xmlns="http://www.w3.org/2000/svg" xmlns:xlink="http://www.w3.org/1999/xlink" width="79" height="95" viewBox="0 0 79 95">
  <defs>
    <path id="footer_logo-a" d="M14.8450157,1.88555524 C11.4965823,4.94194967 7.57133531,8.2626034 4.25205485,11.2206688 C3.56279398,11.8372738 3.03803948,12.3473557 2.17177808,13.0725324 C1.94271858,13.2609964 1.87816544,13.3736651 1.66576481,13.5703232 L0.0352776135,14.9489783 L5.70554153,38.6155499 C6.56555585,38.5909676 9.43296437,38.6032588 12.5981502,38.6155499 C17.3355173,38.6360351 22.7371569,38.6544718 23.0869932,38.5438516 L23.0869932,3.40965541 C22.5289209,2.9938055 17.4667059,0.306144987 16.9794339,0.0623709009 C16.5317266,0.2979509 15.2323345,1.5332095 14.8450157,1.88555524 Z"/>
    <path id="footer_logo-c" d="M0.176342939,3.40555837 L0.170095862,38.5991617 L17.5994418,38.6196469 L23.3217647,14.9366872 C22.7303747,14.58639 21.757913,13.6358759 21.2040054,13.1135029 C20.9374635,12.8594862 20.5189093,12.5009949 20.1336728,12.1691343 C18.0221607,10.3541441 15.8460954,8.30562235 13.8053834,6.61559192 C12.4893325,5.52372984 6.94401011,0.377843248 6.33804361,0.0726135096 L0.176342939,3.40555837 Z"/>
    <path id="footer_logo-e" d="M15.8259294,0.0500797705 C15.4219517,0.0500797705 4.5041428,6.10346149 2.36347761,7.24858514 C1.88869973,7.50055331 0.830861293,8.01678079 0.441460136,8.33020461 L10.007818,16.8663947 C10.6679258,17.4850482 15.4719283,21.756216 15.8654942,21.9262434 C16.2319894,21.465326 17.1378156,20.7934108 17.7146291,20.2628437 C18.7995382,19.2672621 20.665332,17.7677442 21.5669935,16.8663947 L25.4172755,13.4699456 C26.2939487,12.6689736 30.7585267,8.82389835 31.1375161,8.33020461 L27.3767755,6.25914914 C25.6900646,5.37418775 16.1778481,0.0623709009 15.8280117,0.0500797705 C15.8280117,0.0500797705 15.8280117,0.0500797705 15.8259294,0.0500797705 Z"/>
    <path id="footer_logo-g" d="M29.2194441,15.1452267 C24.6299246,16.0773041 25.9313991,22.4891771 30.4043065,21.813165 C32.0098054,21.5693909 33.5215981,19.928525 33.1738441,17.8800032 C32.9322904,16.4542321 31.5766747,15.079674 29.8712225,15.079674 C29.6588219,15.079674 29.4422565,15.1001592 29.2194441,15.1452267 Z"/>
    <path id="footer_logo-h" d="M16.33526,65.5175277 C16.33526,67.0327491 17.2612382,67.9543358 18.7411313,68.6226937 C19.75699,69.0834871 20.6996903,69.6916513 20.6996903,70.8498616 C20.6996903,71.8440959 19.9660145,72.5581181 18.9041703,72.5124539 C18.0534409,72.5124539 17.0814772,72.3775369 16.2140258,72.06619 L16.2140258,73.1808118 C16.976965,73.4630996 18.0388092,73.625 18.9041703,73.625 C20.6683366,73.625 22.1503199,72.7200185 22.1503199,70.8041974 C22.1503199,69.423893 21.4605392,68.4296587 19.5479656,67.5827952 C18.3669775,67.0182196 17.6939188,66.5283672 17.6939188,65.550738 C17.6939188,64.7017989 18.4275946,64.0645756 19.3243095,64.0645756 C20.1750389,64.0645756 21.0717538,64.2119465 21.9078515,64.5108395 L21.9078515,63.3816882 C21.1470026,63.0994004 20.2189341,62.9375 19.3535729,62.9375 C17.9635604,62.9375 16.33526,63.6930351 16.33526,65.5175277 Z M0,68.2822878 C0,71.1030904 1.1956198,73.625 4.24319613,73.625 C5.14200122,73.625 6.03871607,73.4630996 6.80165527,73.1808118 L6.80165527,72.06619 C5.97809898,72.365083 5.11064755,72.5124539 4.26200833,72.5124539 C2.27209566,72.5124539 1.37538081,70.6568266 1.37538081,68.2822878 C1.37538081,65.9056734 2.27209566,64.0645756 4.26200833,64.0645756 C5.11064755,64.0645756 5.97809898,64.2119465 6.80165527,64.5108395 L6.80165527,63.3816882 C6.03871607,63.0994004 5.14200122,62.9375 4.24319613,62.9375 C1.1956198,62.9375 0,65.4594096 0,68.2822878 Z M26.1677696,63.0101476 L27.7814383,63.0101476 L30.875,73.4755535 L29.4410923,73.4755535 L28.6049946,70.5239852 L25.3316719,70.5239852 L24.4788521,73.4755535 L23.0449445,73.4755535 L26.1677696,63.0101476 Z M26.974604,64.7619926 L25.6305768,69.3948339 L28.3039994,69.3948339 L27.0059576,64.7619926 L26.974604,64.7619926 Z M10.6247123,63.0101476 L12.2404712,63.0101476 L15.3340329,73.4755535 L13.898035,73.4755535 L13.0619372,70.5239852 L9.79070476,70.5239852 L8.93788505,73.4755535 L7.50188714,73.4755535 L10.6247123,63.0101476 Z M11.4336369,64.7619926 L10.0875195,69.3948339 L12.7651225,69.3948339 L11.4629003,64.7619926 L11.4336369,64.7619926 Z"/>
    <path id="footer_logo-i" d="M38.1212523,65.5191019 C38.1212523,67.0319539 39.0452787,67.9533617 40.5253934,68.6195146 C41.5434949,69.0822937 42.4842458,69.6882646 42.4842458,70.84625 C42.4842458,71.8423665 41.7525507,72.5541748 40.6905475,72.5105947 C39.8376,72.5105947 38.8654908,72.3757039 38,72.0644175 L38,73.1767476 C38.7609629,73.4610558 39.8229661,73.625 40.6905475,73.625 C42.4528874,73.625 43.9330021,72.7181189 43.9330021,70.8026699 C43.9330021,69.4205583 43.2452087,68.4285922 41.3323486,67.5818932 C40.1511836,67.0174272 39.4780241,66.5276699 39.4780241,65.5481553 C39.4780241,64.7014563 40.2118098,64.0643568 41.108659,64.0643568 C41.9595159,64.0643568 42.8584556,64.211699 43.6946786,64.510534 L43.6946786,63.3816019 C42.9316251,63.0993689 42.0055081,62.9375 41.1379268,62.9375 C39.7477061,62.9375 38.1212523,63.6928883 38.1212523,65.5191019 Z M47.9531442,63.0101335 L49.5670545,63.0101335 L52.6631702,73.4735073 L51.2269572,73.4735073 L50.3886436,70.5225121 L47.1148306,70.5225121 L46.2660643,73.4735073 L44.8298513,73.4735073 L47.9531442,63.0101335 Z M48.7600994,64.7616383 L47.4137803,69.3935801 L50.0917845,69.3935801 L48.7893672,64.7616383 L48.7600994,64.7616383 Z M71.4802781,63.0848422 L71.4802781,73.4735073 L77.1875,73.4735073 L77.1875,72.3611772 L72.7785143,72.3611772 L72.7785143,68.7398786 L76.441171,68.7398786 L76.441171,67.6109466 L72.7785143,67.6109466 L72.7785143,64.211699 L77.0390704,64.211699 L77.0390704,63.0848422 L71.4802781,63.0848422 Z M62.5096959,63.0848422 L65.4845592,63.0848422 C68.5200487,63.0848422 69.7158476,65.4609951 69.7158476,68.28125 C69.7158476,71.1015049 68.5200487,73.4735073 65.4845592,73.4735073 L62.5096959,73.4735073 L62.5096959,63.0848422 Z M63.8121132,64.211699 L63.8121132,72.3611772 L65.4552914,72.3611772 C67.4434116,72.3611772 68.3402607,70.6553277 68.3402607,68.28125 C68.3402607,65.9050971 67.4434116,64.211699 65.4552914,64.211699 L63.8121132,64.211699 Z M59.2233396,63.0848422 L59.2233396,70.119915 C59.2233396,71.6203155 58.55018,72.5105947 56.9948053,72.5105947 C55.3829855,72.5105947 54.7704521,71.4127913 54.7704521,70.119915 L54.7704521,63.0848422 L53.4680348,63.0848422 L53.4680348,70.119915 C53.4680348,72.4068325 54.6951921,73.625 56.9948053,73.625 C59.2839657,73.625 60.5236663,72.4068325 60.5236663,70.119915 L60.5236663,63.0848422 L59.2233396,63.0848422 Z"/>
    <path id="footer_logo-j" d="M26.1845297,76.6064732 L26.3699091,76.7061384 C26.5145459,76.4940848 26.5980685,76.4559152 26.6938139,76.4559152 C26.8954905,76.4559152 27.274398,76.7697545 27.5392258,76.7697545 C27.7571995,76.7697545 27.8957248,76.5470982 28.0525843,76.1929687 L27.869242,76.0657366 C27.7225681,76.2756696 27.6431198,76.324442 27.5473744,76.324442 C27.3069922,76.324442 27.007533,76 26.6978882,76 C26.4819517,76 26.3434264,76.2311384 26.1845297,76.6064732 Z M52.1621013,78.3347098 C52.1621013,79.0069196 52.5532316,79.416183 53.1806698,79.713058 C53.6105058,79.91875 54.0118217,80.188058 54.0118217,80.7033482 C54.0118217,81.1444196 53.7001398,81.4625 53.2499325,81.4412946 C52.8893592,81.4412946 52.4778576,81.3819196 52.1091357,81.2440848 L52.1091357,81.7381696 C52.4350777,81.8632812 52.8832478,81.9375 53.2499325,81.9375 C53.9975618,81.9375 54.625,81.5345982 54.625,80.6821429 C54.625,80.069308 54.3336894,79.6282366 53.5229089,79.2507812 C53.0238103,79.000558 52.736574,78.7821429 52.736574,78.3495536 C52.736574,77.9720982 53.0482559,77.6879464 53.4271634,77.6879464 C53.7897738,77.6879464 54.1686813,77.7558036 54.5231431,77.8872768 L54.5231431,77.3847098 C54.1992384,77.2595982 53.808108,77.1875 53.4414234,77.1875 C52.8526908,77.1875 52.1621013,77.5225446 52.1621013,78.3347098 Z M29.0222616,79.5603795 C29.0222616,78.2689732 29.4846917,77.1875 30.6947511,77.1875 C31.8986991,77.1875 32.3590921,78.2689732 32.3590921,79.5603795 C32.3590921,80.8793527 31.8986991,81.9375 30.6947511,81.9375 C29.4846917,81.9375 29.0222616,80.8793527 29.0222616,79.5603795 Z M29.6069199,79.5603795 C29.6069199,80.6100446 29.8085965,81.4412946 30.6947511,81.4412946 C31.5747943,81.4412946 31.778508,80.6100446 31.778508,79.5603795 C31.778508,78.5404018 31.5747943,77.6879464 30.6947511,77.6879464 C29.8085965,77.6879464 29.6069199,78.5404018 29.6069199,79.5603795 Z M22.6134284,78.3347098 C22.6134284,79.0069196 23.0065959,79.416183 23.6340341,79.713058 C24.06387,79.91875 24.4611117,80.188058 24.4611117,80.7033482 C24.4611117,81.1444196 24.1514669,81.4625 23.7032967,81.4412946 C23.3406864,81.4412946 22.9312218,81.3819196 22.5625,81.2440848 L22.5625,81.7381696 C22.8843677,81.8632812 23.3345749,81.9375 23.7032967,81.9375 C24.450926,81.9375 25.0783643,81.5345982 25.0783643,80.6821429 C25.0783643,80.069308 24.7850165,79.6282366 23.974236,79.2507812 C23.4731003,79.000558 23.1899382,78.7821429 23.1899382,78.3495536 C23.1899382,77.9720982 23.499583,77.6879464 23.8805277,77.6879464 C24.2411009,77.6879464 24.6220456,77.7558036 24.9744703,77.8872768 L24.9744703,77.3847098 C24.6526026,77.2595982 24.2594352,77.1875 23.8907134,77.1875 C23.3019807,77.1875 22.6134284,77.5225446 22.6134284,78.3347098 Z M40.2081811,77.219308 L40.8926592,77.219308 L42.2045754,81.8696429 L41.5954714,81.8696429 L41.2410096,80.5570312 L39.8557564,80.5570312 L39.493146,81.8696429 L38.8860792,81.8696429 L40.2081811,77.219308 Z M40.5524573,77.9975446 L39.9820589,80.0565848 L41.1147071,80.0565848 L40.5646801,77.9975446 L40.5524573,77.9975446 Z M26.7814108,77.219308 L27.4638517,77.219308 L28.775768,81.8696429 L28.166664,81.8696429 L27.8142393,80.5570312 L26.4249118,80.5570312 L26.0663757,81.8696429 L25.4572717,81.8696429 L26.7814108,77.219308 Z M27.1236499,77.9975446 L26.5512143,80.0565848 L27.6858997,80.0565848 L27.1338355,77.9975446 L27.1236499,77.9975446 Z M50.8766678,77.2532366 L50.8766678,80.3789062 C50.8766678,81.0447545 50.5894315,81.4412946 49.9314362,81.4412946 C49.2469582,81.4412946 48.9882418,80.9535714 48.9882418,80.3789062 L48.9882418,77.2532366 L48.4361776,77.2532366 L48.4361776,80.3789062 C48.4361776,81.3946429 48.9556476,81.9375 49.9314362,81.9375 C50.9011135,81.9375 51.4266948,81.3946429 51.4266948,80.3789062 L51.4266948,77.2532366 L50.8766678,77.2532366 Z M45.3336179,77.2532366 L45.3336179,81.8696429 L47.7537367,81.8696429 L47.7537367,81.375558 L45.8856821,81.375558 L45.8856821,79.7639509 L47.4359434,79.7639509 L47.4359434,79.265625 L45.8856821,79.265625 L45.8856821,77.7558036 L47.6885484,77.7558036 L47.6885484,77.2532366 L45.3336179,77.2532366 Z M42.0253074,77.2532366 L44.7571081,77.2532366 L44.7571081,77.7558036 L43.6672398,77.7558036 L43.6672398,81.8696429 L43.1151757,81.8696429 L43.1151757,77.7558036 L42.0253074,77.7558036 L42.0253074,77.2532366 Z M37.6128685,77.2532366 L36.4720718,80.9408482 L36.4578118,80.9408482 L35.300718,77.2532366 L34.5653115,77.2532366 L34.5653115,81.8696429 L35.1153385,81.8696429 L35.1153385,78.5128348 L35.1295984,78.5128348 L36.1990954,81.8696429 L36.7124539,81.8696429 L37.783988,78.5128348 L37.7962108,78.5128348 L37.7962108,81.8696429 L38.348275,81.8696429 L38.348275,77.2532366 L37.6128685,77.2532366 Z"/>
    <path id="footer_logo-k" d="M33.8256798,90.5473807 C33.8256798,91.421316 34.332927,91.9230196 35.1538932,92.3377342 C35.7263287,92.616908 36.1480161,92.9041738 36.1480161,93.4584753 C36.1480161,93.9278109 35.8179999,94.1341567 35.3026042,94.1341567 C34.8462855,94.1341567 34.2575529,94.0694208 33.7503058,93.8873509 L33.7503058,94.7531942 C34.1740303,94.9089651 34.854434,95 35.3270498,95 C36.3985839,95 37.26233,94.5043654 37.26233,93.3512564 C37.26233,92.600724 36.8711997,92.0565375 35.834297,91.5689949 C35.2027845,91.2655451 34.8646197,91.0490843 34.8646197,90.5979557 C34.8646197,90.1346891 35.2863071,89.9364353 35.6529918,89.9364353 C36.0909762,89.9364353 36.6308176,90.0193782 37.1034334,90.1852641 L37.1034334,89.3113288 C36.6797088,89.1535349 36.1093105,89.0625 35.6346575,89.0625 C34.838137,89.0625 33.8256798,89.4590077 33.8256798,90.5473807 Z M28.6044976,92.0302385 C28.6044976,90.4138629 29.2360101,89.0625 30.9044253,89.0625 C32.564692,89.0625 33.1962045,90.4138629 33.1962045,92.0302385 C33.1962045,93.6810051 32.564692,95 30.9044253,95 C29.2360101,95 28.6044976,93.6810051 28.6044976,92.0302385 Z M29.6678831,92.0302385 C29.6678831,93.3411414 29.9082653,94.1341567 30.9044253,94.1341567 C31.8924368,94.1341567 32.132819,93.3411414 32.132819,92.0302385 C32.132819,90.7557496 31.8924368,89.9364353 30.9044253,89.9364353 C29.9082653,89.9364353 29.6678831,90.7557496 29.6678831,92.0302385 Z M49.0227222,89.104983 L50.3183414,89.104983 L51.9704595,94.9170571 L50.8500342,94.9170571 L50.4752009,93.5232112 L48.855677,93.5232112 L48.4747324,94.9170571 L47.354307,94.9170571 L49.0227222,89.104983 Z M49.6786803,90.4563458 L49.0736506,92.649276 L50.267413,92.649276 L49.6970146,90.4563458 L49.6786803,90.4563458 Z M52.3839983,89.1454429 L52.3839983,94.9170571 L55.8125,94.9170571 L55.8125,94.0512138 L53.404604,94.0512138 L53.404604,89.1454429 L52.3839983,89.1454429 Z M44.0500707,89.1454429 L47.7943286,89.1454429 L47.7943286,90.0193782 L46.433521,90.0193782 L46.433521,94.9170571 L45.4129154,94.9170571 L45.4129154,90.0193782 L44.0500707,90.0193782 L44.0500707,89.1454429 Z M42.5079579,94.9170571 L43.5285636,94.9170571 L43.5285636,89.1454429 L42.5079579,89.1454429 L42.5079579,94.9170571 Z M37.9834766,89.1454429 L40.0837649,89.1454429 C41.3040099,89.1454429 41.7847743,89.9708262 41.7847743,90.8831985 C41.7847743,91.8420997 41.3040099,92.616908 40.040985,92.616908 L39.0040822,92.616908 L39.0040822,94.9170571 L37.9834766,94.9170571 L37.9834766,89.1454429 Z M39.0040822,90.0193782 L39.0040822,91.7429727 L39.818937,91.7429727 C40.2915528,91.7429727 40.7234259,91.6114779 40.7234259,90.8831985 C40.7234259,90.201448 40.3730383,90.0193782 39.8596798,90.0193782 L39.0040822,90.0193782 Z M26.8627454,89.1454429 L26.8627454,91.5366269 L24.7706057,91.5366269 L24.7706057,89.1454429 L23.75,89.1454429 L23.75,94.9170571 L24.7706057,94.9170571 L24.7706057,92.4125852 L26.8627454,92.4125852 L26.8627454,94.9170571 L27.8833511,94.9170571 L27.8833511,89.1454429 L26.8627454,89.1454429 Z"/>
    <path id="footer_logo-l" d="M34.6126663,66.5 L34.6758598,66.5 L34.6758598,71.1873712 L34.1234257,71.1873712 L34.1234257,70.8840132 L34.1111947,70.8840132 C33.8523049,71.1501854 33.5669146,71.25 33.2794858,71.25 C32.4375844,71.25 32.0625,70.578698 32.0625,69.6960239 C32.0625,68.8133498 32.4253534,68.0833333 33.3304484,68.0833333 C33.6178772,68.0833333 33.8706515,68.1694479 34.1111947,68.3514627 L34.1234257,68.3514627 L34.1234257,66.5606716 L34.6126663,66.5 Z M32.6292036,69.6960239 C32.6292036,70.3477544 32.8248998,70.8233416 33.3956804,70.8233416 C33.6484547,70.8233416 33.888998,70.7450556 34.1234257,70.5493407 L34.1234257,68.684178 C33.9277295,68.5941492 33.7116483,68.5158632 33.438489,68.5158632 C32.8167458,68.5158632 32.6292036,69.0384219 32.6292036,69.6960239 Z M35.4239902,69.7038525 C35.4239902,68.6626494 35.9152692,68.0833333 36.8550187,68.0833333 C37.9068858,68.0833333 38.1351981,68.8759786 37.9333864,69.7214668 L35.9866168,69.7214668 C36.0008863,70.4142975 36.2903536,70.8233416 36.8937502,70.8233416 C37.1913716,70.8233416 37.6011105,70.7489699 37.8946548,70.6393696 L37.8946548,71.066028 C37.582764,71.1834569 37.1913716,71.25 36.8162872,71.25 C35.8602296,71.25 35.4239902,70.670684 35.4239902,69.7038525 Z M36.8162872,68.5158632 C36.3861632,68.5158632 36.0803879,68.7781211 36.0192328,69.3319942 L37.4522999,69.3319942 C37.5399554,68.8994644 37.3870678,68.5158632 36.8162872,68.5158632 Z"/>
  </defs>
  <g fill="none" fill-rule="evenodd">
    <g transform="translate(9.5)">
      <polygon fill="#FEFEFE" points=".595 16.316 .595 57.7 58.895 57.7 58.895 16.316 29.787 .007"/>
      <g transform="translate(31.818 15.185)">
        <mask id="footer_logo-b" fill="#fff">
          <use xlink:href="#footer_logo-a"/>
        </mask>
        <polygon fill="#A5B8D5" points="-4.213 42.811 27.337 42.811 27.337 -4.117 -4.213 -4.117" mask="url(#footer_logo-b)"/>
      </g>
      <g transform="translate(4.415 15.185)">
        <mask id="footer_logo-d" fill="#fff">
          <use xlink:href="#footer_logo-c"/>
        </mask>
        <polygon fill="#005181" points="-4.078 42.799 27.572 42.799 27.572 -4.106 -4.078 -4.106" mask="url(#footer_logo-d)"/>
      </g>
      <g transform="translate(13.99 4.943)">
        <mask id="footer_logo-f" fill="#fff">
          <use xlink:href="#footer_logo-e"/>
        </mask>
        <polygon fill="#36AAC3" points="-3.807 26.105 35.386 26.105 35.386 -4.131 -3.807 -4.131" mask="url(#footer_logo-f)"/>
      </g>
      <polygon fill="#36AAC3" points="25.991 53.764 33.535 53.797 29.806 38.165"/>
      <use fill="#FFF" xlink:href="#footer_logo-g"/>
    </g>
    <use fill="#015580" xlink:href="#footer_logo-h"/>
    <use fill="#015580" xlink:href="#footer_logo-i"/>
    <use fill="#015580" xlink:href="#footer_logo-j"/>
    <use fill="#015580" xlink:href="#footer_logo-k"/>
    <use fill="#015580" xlink:href="#footer_logo-l"/>
    <polygon fill="#015580" points="57 62.399 57.286 62.938 59.375 62.288 59.091 61.75"/>
    <polygon fill="#015580" points="0 85.979 78.375 85.979 78.375 85.5 0 85.5"/>
  </g>
</svg>
