<svg width="210px" height="210px" viewBox="0 0 210 210" version="1.1" xmlns="http://www.w3.org/2000/svg" xmlns:xlink="http://www.w3.org/1999/xlink">
    <g stroke="none" stroke-width="1" fill="none" fill-rule="evenodd">
        <g transform="translate(-1140.000000, -63.000000)" fill="#36AAC3" fill-rule="nonzero">
            <path d="M1339.99372,217.738367 L1339.99527,217.614094 C1340.18542,209.965951 1334.59951,203.386342 1327.045,202.322491 C1317.01743,201.002577 1307.17162,198.554742 1297.68407,195.021448 C1292.15886,192.948642 1285.92991,194.274461 1281.75433,198.395286 L1268.98328,211.141027 C1267.39256,212.728596 1264.93808,213.059774 1262.98349,211.950565 C1237.02546,197.219666 1215.53211,175.768883 1200.77127,149.861062 C1199.65534,147.902416 1199.98804,145.439252 1201.58361,143.846846 L1214.3349,131.120925 C1218.48008,126.937399 1219.80621,120.731625 1217.7285,115.215215 C1214.19176,105.755995 1211.73859,95.9277575 1210.42209,85.9640531 C1209.36135,78.4741661 1202.89744,72.9262159 1195.26082,73.0009867 L1165.09771,73.0009845 C1160.85361,73.004973 1156.80733,74.7887039 1153.94761,77.9152571 C1151.08989,81.0396235 1149.68001,85.2173704 1150.05362,89.3504689 C1153.27119,119.589537 1163.58077,148.647189 1180.17108,174.20638 C1195.21601,197.835818 1215.28974,217.869784 1239.00575,232.910323 C1264.46537,249.388089 1293.44324,259.676135 1323.52093,262.938669 C1327.76114,263.321119 1331.96596,261.901902 1335.10174,259.030738 C1338.23533,256.161576 1340.01102,252.108454 1339.99372,247.846419 L1339.99372,217.738367 Z M1349.99368,247.826081 C1350.02241,254.887841 1347.06701,261.633743 1341.85477,266.406144 C1336.64473,271.176534 1329.66244,273.533203 1322.53272,272.889312 C1290.81274,269.449503 1260.34323,258.631879 1233.61122,241.330354 C1208.6946,225.528664 1187.56933,204.445232 1171.75949,179.614071 C1154.33657,152.772533 1143.49379,122.212041 1140.10206,90.3303879 C1139.46719,83.3188011 1141.81419,76.3641991 1146.56868,71.1660762 C1151.32118,65.9701313 1158.04148,63.0076114 1165.09301,63.0009867 L1195.21171,63.0012279 C1207.81378,62.8774419 1218.55834,72.0994562 1220.32959,84.6078748 C1221.55341,93.8686014 1223.82304,102.961477 1227.09095,111.70178 C1230.54292,120.866807 1228.335,131.199012 1221.4187,138.17918 L1211.38414,148.193866 C1224.51739,169.987479 1242.80549,188.237226 1264.64508,201.342528 L1274.71013,191.297504 C1281.68067,184.418184 1292.02252,182.216946 1301.18531,185.654419 C1309.95601,188.920737 1319.06886,191.186346 1328.39462,192.414085 C1340.9976,194.188537 1350.27676,205.095975 1349.99372,217.797119 L1349.99368,247.826081 Z" id="icon_phone"></path>
        </g>
    </g>
</svg>