<svg width="190px" height="210px" viewBox="0 0 190 210" version="1.1" xmlns="http://www.w3.org/2000/svg" xmlns:xlink="http://www.w3.org/1999/xlink">
    <g stroke="none" stroke-width="1" fill="none" fill-rule="evenodd">
        <g transform="translate(-161.000000, -63.000000)" fill="#FFFFFF" fill-rule="nonzero">
            <path d="M171,143 L341,143 L341,108.02002 C341,99.724692 334.275308,93 325.97998,93 L301,93 L301,108 C301,110.761424 298.761424,113 296,113 C293.238576,113 291,110.761424 291,108 L291,93 L221,93 L221,108 C221,110.761424 218.761424,113 216,113 C213.238576,113 211,110.761424 211,108 L211,93 L186.02002,93 C177.724692,93 171,99.724692 171,108.02002 L171,143 Z M171,153 L171,247.97998 C171,256.275308 177.724692,263 186.02002,263 L325.97998,263 C334.275308,263 341,256.275308 341,247.97998 L341,153 L171,153 Z M221,83 L291,83 L291,68 C291,65.2385763 293.238576,63 296,63 C298.761424,63 301,65.2385763 301,68 L301,83 L325.97998,83 C339.798155,83 351,94.2018445 351,108.02002 L351,247.97998 C351,261.798155 339.798155,273 325.97998,273 L186.02002,273 C172.201845,273 161,261.798155 161,247.97998 L161,108.02002 C161,94.2018445 172.201845,83 186.02002,83 L211,83 L211,68 C211,65.2385763 213.238576,63 216,63 C218.761424,63 221,65.2385763 221,68 L221,83 Z" id="icon_appointment"></path>
        </g>
    </g>
</svg>