<svg width="193px" height="133px" viewBox="0 0 193 133" version="1.1" xmlns="http://www.w3.org/2000/svg" xmlns:xlink="http://www.w3.org/1999/xlink">
    <g stroke="none" stroke-width="1" fill="none" fill-rule="evenodd" stroke-linejoin="round">
        <g transform="translate(-780.000000, -313.000000)" fill="#36AAC3" fill-rule="nonzero" stroke="#36AAC3" stroke-width="2.5">
            <path d="M784.999853,314.75 L785,314.75 L968.000147,314.75 C969.715171,314.750202 971.249798,316.28835 971.25,318 L971.25,441.000147 C971.249798,442.71165 969.715171,444.249798 968,444.25 L784.999853,444.25 C783.284829,444.249798 781.750202,442.71165 781.75,441 L781.75,317.999853 C781.750202,316.28835 783.284829,314.750202 784.999853,314.75 Z M794.238837,321.25 L876.995073,396.307982 L958.789028,321.25 L794.238837,321.25 Z M788.25,325.838586 L788.25,432.982233 L844.192258,377.039975 L788.25,325.838586 Z M963.75,325.838586 L907.807742,377.039975 L963.75,432.982233 L963.75,325.838586 Z M850.02867,381.724905 L793.053997,437.75 L958.946003,437.75 L901.97133,381.724905 L877.980135,403.796805 C877.069576,405.17156 874.930283,405.171578 874.019825,403.796767 L850.02867,381.724905 Z" id="Shape"></path>
        </g>
    </g>
</svg>