<svg width="186px" height="179px" viewBox="0 0 186 179" version="1.1" xmlns="http://www.w3.org/2000/svg" xmlns:xlink="http://www.w3.org/1999/xlink">
    <g stroke="none" stroke-width="1" fill="none" fill-rule="evenodd">
        <g transform="translate(-787.000000, -95.000000)" fill="#FFFFFF" fill-rule="nonzero">
            <path d="M796,272 C792.371971,274.673868 787,272.444903 787,268 L787,115 C787,103.960832 795.946367,95 807,95 L953,95 C964.053632,95 973,103.960832 973,115 L973,219 C973,230.548519 964.053632,239.50935 953,240 L828,240 C827.610888,239.50935 827.386984,239.602245 827,240 L796,272 Z M820,233 C822.222166,230.719745 824.982269,229.57384 828,230 L953,230 C958.52098,229.57384 963,225.084504 963,220 L963,115 C963,109.489336 958.52098,105 953,105 L807,105 C801.47902,105 797,109.489336 797,115 L797,256 L820,233 Z" id="icon_message"></path>
        </g>
    </g>
</svg>