<svg width="187px" height="179px" viewBox="0 0 187 179" version="1.1" xmlns="http://www.w3.org/2000/svg" xmlns:xlink="http://www.w3.org/1999/xlink">
    <g stroke="none" stroke-width="1" fill="none" fill-rule="evenodd">
        <g transform="translate(-787.000000, -95.000000)" fill="#015580" fill-rule="nonzero">
            <path d="M795.53543,271.677409 C792.385563,274.82709 787,272.596224 787,268.141771 L787,115.031793 C787,103.968473 795.969002,95 807.03268,95 L953.437908,95 C964.501586,95 973.470588,103.968473 973.470588,115.031793 L973.470588,219.600791 C973.470588,230.664111 964.501586,239.632585 953.437908,239.632585 L827.947712,239.632585 C827.713636,239.632585 827.489164,239.725558 827.32369,239.891022 L795.53543,271.677409 Z M820.252831,232.819746 C822.293667,230.77903 825.061595,229.632585 827.947712,229.632585 L953.437908,229.632585 C958.97887,229.632585 963.470588,225.141132 963.470588,219.600791 L963.470588,115.031793 C963.470588,109.491453 958.97887,105 953.437908,105 L807.03268,105 C801.491718,105 797,109.491453 797,115.031793 L797,256.071206 L820.252831,232.819746 Z" id="icon_message"></path>
        </g>
    </g>
</svg>