<svg width="163px" height="160px" viewBox="0 0 163 160" version="1.1" xmlns="http://www.w3.org/2000/svg" xmlns:xlink="http://www.w3.org/1999/xlink">
    <g stroke="none" stroke-width="1" fill="none" fill-rule="evenodd">
        <g transform="translate(-1117.000000, -354.000000)" fill="#FFFFFF" fill-rule="nonzero">
            <path d="M1117,399.22882 L1198.61894,354 L1280,399.22882 L1280,514 L1117,514 L1117,399.22882 Z M1244.47512,401.057833 C1235.32586,409.536392 1224.59525,418.750694 1215.52443,426.95534 C1213.64186,428.665703 1212.20484,430.079858 1209.83909,432.092799 C1209.21156,432.615144 1209.03586,432.927278 1208.4554,433.475103 L1204,437.300329 L1219.49664,502.956608 C1221.84671,502.889722 1229.68445,502.921573 1238.33483,502.956608 C1251.28059,503.013939 1266.04303,503.064899 1267,502.759136 L1267,405.287558 C1265.47512,404.134575 1251.64142,396.678412 1250.30793,396 C1249.08427,396.652932 1245.5325,400.080028 1244.47512,401.057833 Z M1128.01587,405.251281 L1128,502.942638 L1176.17931,503 L1192,437.259501 C1190.36557,436.287527 1187.67748,433.648856 1186.1446,432.198862 C1185.40831,431.494579 1184.24993,430.497111 1183.18675,429.576126 C1177.35039,424.537795 1171.33313,418.852543 1165.69354,414.161574 C1162.05653,411.130927 1146.72459,396.847689 1145.05207,396 L1128.01904,405.251281 L1128.01587,405.251281 Z M1159.38746,386.911785 L1159.38425,386.90861 C1158.05588,387.604093 1155.09036,389.033169 1154,389.900141 L1180.80223,413.511644 C1182.65166,415.223359 1196.10906,427.040226 1197.21228,427.510233 C1198.2351,426.236768 1200.77605,424.375794 1202.39068,422.90861 C1205.43017,420.155258 1210.66003,416.007763 1213.18491,413.51482 L1223.9727,404.12103 C1226.43002,401.904375 1238.93859,391.268878 1240,389.903317 L1229.46309,384.174312 C1224.7382,381.729005 1198.08714,367.034933 1197.10936,367 C1195.97397,367 1165.38604,383.742414 1159.38746,386.911785 Z M1186.39233,501.91108 L1207.52726,502 L1197.08041,458.759351 L1186.39233,501.91108 Z M1195.4111,395.082922 C1196.03508,394.959068 1196.64298,394.901905 1197.23801,394.901905 C1202.01436,394.901905 1205.81293,398.703246 1206.48837,402.647495 C1207.46294,408.312985 1203.22694,412.85427 1198.73042,413.527523 C1186.19934,415.398024 1182.55195,397.661609 1195.4111,395.082922 Z" id="Combined-Shape"></path>
        </g>
    </g>
</svg>