<svg width="108px" height="193px" viewBox="0 0 108 193" version="1.1" xmlns="http://www.w3.org/2000/svg" xmlns:xlink="http://www.w3.org/1999/xlink">
    <g stroke="none" stroke-width="1" fill="none" fill-rule="evenodd">
        <g transform="translate(-438.000000, -396.000000)" fill="#015580" fill-rule="nonzero">
            <path d="M467.039866,444.398936 C467.039866,417.653177 489.056441,396 516.180461,396 L540.961147,396 C543.72257,396 545.961147,398.238576 545.961147,401 L545.961147,430.638298 C545.961147,433.399722 543.72257,435.638298 540.961147,435.638298 L516.180461,435.638298 C511.231024,435.638298 507.241326,439.573154 507.241326,444.398936 L507.241326,472.212766 L539.751893,472.212766 C543.012561,472.212766 545.400775,475.283494 544.597982,478.443791 L537.069128,508.082089 C536.505986,510.298968 534.510325,511.851064 532.223039,511.851064 L507.241326,511.851064 L507.241326,583.06383 C507.241326,585.825253 505.002749,588.06383 502.241326,588.06383 L472.039866,588.06383 C469.278442,588.06383 467.039866,585.825253 467.039866,583.06383 L467.039866,511.851064 L443,511.851064 C440.238576,511.851064 438,509.612488 438,506.851064 L438,477.212766 C438,474.451342 440.238576,472.212766 443,472.212766 L467.039866,472.212766 L467.039866,444.398936 Z M516.180461,406 C494.542377,406 477.039866,423.213621 477.039866,444.398936 L477.039866,472.978723 C477.039866,478.085191 472.887786,482.212766 467.780685,482.212766 L448,482.212766 L448,501.851064 L467.780685,501.851064 C472.887785,501.851064 477.039866,505.978638 477.039866,511.085106 L477.039866,578.06383 L497.241326,578.06383 L497.241326,511.085106 C497.241326,505.978638 501.393406,501.851064 506.500506,501.851064 L528.334362,501.851064 L533.322971,482.212766 L506.500506,482.212766 C501.393406,482.212766 497.241326,478.085191 497.241326,472.978723 L497.241326,444.398936 C497.241326,434.019087 505.738922,425.638298 516.180461,425.638298 L535.961147,425.638298 L535.961147,406 L516.180461,406 Z" id="icon_facebook"></path>
        </g>
    </g>
</svg>