<svg width="210px" height="210px" viewBox="0 0 210 210" version="1.1" xmlns="http://www.w3.org/2000/svg" xmlns:xlink="http://www.w3.org/1999/xlink">
    <g stroke="none" stroke-width="1" fill="none" fill-rule="evenodd">
        <g transform="translate(-424.000000, -63.000000)" fill="#00C7E8" fill-rule="nonzero">
            <path d="M587.720268,219.6492 L632.535534,264.464466 C634.488155,266.417088 634.488155,269.582912 632.535534,271.535534 C630.582912,273.488155 627.417088,273.488155 625.464466,271.535534 L580.6492,226.720268 C564.018558,241.676711 542.016558,250.777778 517.888889,250.777778 C466.035487,250.777778 424,208.74229 424,156.888889 C424,105.035487 466.035487,63 517.888889,63 C569.74229,63 611.777778,105.035487 611.777778,156.888889 C611.777778,181.016558 602.676711,203.018558 587.720268,219.6492 Z M577.915918,215.49015 C592.679851,200.369278 601.777778,179.691551 601.777778,156.888889 C601.777778,110.558335 564.219443,73 517.888889,73 C471.558335,73 434,110.558335 434,156.888889 C434,203.219443 471.558335,240.777778 517.888889,240.777778 C540.691551,240.777778 561.369278,231.679851 576.49015,216.915918 C576.67327,216.638511 576.886931,216.375334 577.131133,216.131133 C577.375334,215.886931 577.638511,215.67327 577.915918,215.49015 Z" id="icon_search"></path>
        </g>
    </g>
</svg>