<svg width="301px" height="323px" viewBox="0 0 301 323" version="1.1" xmlns="http://www.w3.org/2000/svg" xmlns:xlink="http://www.w3.org/1999/xlink">
   <g stroke="none" stroke-width="1" fill="none" fill-rule="evenodd">
        <g transform="translate(-1.000000, 0.000000)" fill="#015580" fill-rule="nonzero">
            <path d="M131.53,23.74 C116.54,28 100.72,30.52 86.75,37 C27.17,64.62 -6.25,127.12 2.33,192.7 C14.33,284.46 109.4,348.33 204.17,312.88 C286.61,282 324.2,188.3 287,108.52 C281.83,97.44 274.18,87.52 267.45,77.16 C264.93,73.29 261.11,71.54 256.88,74.59 C252.65,77.64 252.66,81.76 255.79,85.87 C257.04,87.51 258.26,89.17 259.48,90.82 C280.41,119.02 289.23,150.69 285.95,185.55 C278.76,261.8 208.85,317.14 132.81,307 C54.45,296.53 1.13,219.67 18.72,142.53 C31.52,86.37 80.6,42.59 136.72,38.13 C132.28,40.94 128.57,43.08 125.09,45.56 C121.61,48.04 120.68,51.63 123.09,55.28 C125.5,58.93 128.87,59.91 132.75,57.62 C144.98,50.39 157.25,43.21 169.33,35.73 C174.44,32.57 174.65,26.79 169.63,23.58 C157.63,15.92 145.49,8.58 133.21,1.43 C129.36,-0.84 125.05,-0.7 122.66,4 C120.39,8.45 122.15,11.86 126.3,14.33 C130.45,16.8 134.24,19.25 139.3,22.38 C135.82,23 133.62,23.14 131.53,23.74 Z M46.74,196.56 L73.83,174.37 C85.68,164.7 90.31,159.37 90.31,151.49 C90.31,143.61 85,139.1 77.51,139.1 C71.51,139.1 67.3,141.69 61.99,147.41 C59.2878507,150.253264 55.1312141,151.173482 51.4814667,149.736436 C47.8317193,148.299389 45.4182921,144.792282 45.38,140.87 C45.4263789,138.4773 46.2910458,136.172698 47.83,134.34 C55.45,125.49 64.44,120.34 78.83,120.34 C98.57,120.34 111.65,131.92 111.65,149.75 L111.65,150 C111.65,165.93 103.48,173.83 86.59,186.9 L71.07,198.9 L104.29,198.9 C106.710507,198.897346 109.032784,199.857029 110.745279,201.567648 C112.457774,203.278268 113.420001,205.599492 113.42,208.02 C113.420251,210.429644 112.454215,212.738753 110.738166,214.430368 C109.022117,216.121982 106.699393,217.054806 104.29,217.02 L52.59,217.02 C46.06,217.02 41.29,213.34 41.29,207.08 C41.29,203 43.2,199.42 46.74,196.56 Z M168.33,196.43 L129.12,196.43 C123.53,196.43 118.9,192.34 118.9,186.76 C118.9,182.4 120.67,179 123.8,175.32 L165.2,127.26 C169.2,122.63 172.14,120.18 178.27,120.18 C180.930425,120.142525 183.494818,121.173206 185.389319,123.041394 C187.283821,124.909583 188.350264,127.459311 188.35,130.12 L188.35,179.41 L193.35,179.41 C195.642643,179.380427 197.850879,180.273992 199.47779,181.889618 C201.1047,183.505244 202.013615,185.707207 202,188 C202.003044,190.263742 201.095507,192.433586 199.481686,194.021074 C197.867865,195.608562 195.683386,196.480282 193.42,196.44 L188.42,196.44 L188.42,207.88 C188.404151,210.53567 187.332587,213.075965 185.441626,214.940663 C183.550665,216.805361 180.995632,217.841293 178.34,217.82 C175.694734,217.849771 173.149122,216.812086 171.278518,214.941482 C169.407914,213.070878 168.370229,210.525266 168.4,207.88 L168.33,196.43 Z M168.33,179.43 L168.33,149.72 L143,179.41 L168.33,179.43 Z M211.83,150.82 C211.728945,148.029992 213.159756,145.407562 215.560536,143.982567 C217.961317,142.557572 220.948683,142.557572 223.349464,143.982567 C225.750244,145.407562 227.181055,148.029992 227.08,150.82 L227.08,170.88 C230.59,166.36 235.08,162.25 242.82,162.25 C254.36,162.25 261.08,169.87 261.08,182.25 L261.08,210 C260.931361,214.103763 257.561454,217.353821 253.455,217.353821 C249.348546,217.353821 245.978639,214.103763 245.83,210 L245.83,187 C245.83,179.78 242.42,176.07 236.61,176.07 C230.8,176.07 227.08,179.78 227.08,187 L227.08,210 C226.931361,214.103763 223.561454,217.353821 219.455,217.353821 C215.348546,217.353821 211.978639,214.103763 211.83,210 L211.83,150.82 Z" id="Shape"></path>
        </g>
    </g>
</svg>