<svg width="176px" height="176px" viewBox="0 0 176 176" version="1.1" xmlns="http://www.w3.org/2000/svg" xmlns:xlink="http://www.w3.org/1999/xlink">
    <g stroke="none" stroke-width="1" fill="none" fill-rule="evenodd">
        <g transform="translate(-67.000000, -467.000000)" fill="#015580" fill-rule="nonzero">
            <path d="M154.878788,642.757576 C106.344673,642.757576 67,603.412902 67,554.878788 C67,506.344674 106.344674,467 154.878788,467 C203.412902,467 242.757576,506.344673 242.757576,554.878788 C242.757576,603.412902 203.412902,642.757576 154.878788,642.757576 Z M154.878788,632.757576 C197.890055,632.757576 232.757576,597.890055 232.757576,554.878788 C232.757576,511.867521 197.890055,477 154.878788,477 C111.867521,477 77,511.867521 77,554.878788 C77,597.890055 111.867521,632.757576 154.878788,632.757576 Z M132.878695,532.126281 C131.920939,534.76966 129.001634,536.136131 126.358244,535.178377 C123.714856,534.220624 122.348382,531.301332 123.306137,528.657955 C128.708352,513.747996 144.331894,504.805847 160.30661,507.466185 C176.315577,510.132228 188.02428,523.676017 187.999962,539.519459 C187.999961,549.115121 182.334346,557.368249 171.571583,564.33459 C168.360605,566.412939 164.845397,568.265133 161.125981,569.870093 C159.206603,570.698322 157.47745,571.359963 156.269087,571.751027 C153.594134,572.616726 150.723868,571.150045 149.858167,568.475105 C148.992466,565.800165 150.459151,562.929912 153.134102,562.064213 C154.041769,561.770463 155.48707,561.214397 157.092085,560.521819 C160.288747,559.14243 163.320012,557.547376 166.039214,555.787336 C173.70228,550.827315 177.818445,545.290476 177.818453,539.511649 C177.835114,528.654705 169.735059,519.35804 158.634066,517.509344 C147.497226,515.654678 136.605634,521.840034 132.878695,532.126281 Z M155,600 C151.686292,600 149,597.313708 149,594 C149,590.686292 151.686292,588 155,588 C158.313708,588 161,590.686292 161,594 C161,597.313708 158.313708,600 155,600 Z" id="icon_faq"></path>
        </g>
    </g>
</svg>