<svg xmlns="http://www.w3.org/2000/svg" xmlns:xlink="http://www.w3.org/1999/xlink" width="185" height="58" viewBox="0 0 185 58">
  <defs>
    <path id="logo_color-a" d="M14.8450157,1.88555524 C11.4965823,4.94194967 7.57133531,8.2626034 4.25205485,11.2206688 C3.56279398,11.8372738 3.03803948,12.3473557 2.17177808,13.0725324 C1.94271858,13.2609964 1.87816544,13.3736651 1.66576481,13.5703232 L0.0352776135,14.9489783 L5.70554153,38.6155499 C6.56555585,38.5909676 9.43296437,38.6032588 12.5981502,38.6155499 C17.3355173,38.6360351 22.7371569,38.6544718 23.0869932,38.5438516 L23.0869932,3.40965541 C22.5289209,2.9938055 17.4667059,0.306144987 16.9794339,0.0623709009 C16.5317266,0.2979509 15.2323345,1.5332095 14.8450157,1.88555524 Z"/>
    <path id="logo_color-c" d="M0.176342939,3.40555837 L0.170095862,38.5991617 L17.5994418,38.6196469 L23.3217647,14.9366872 C22.7303747,14.58639 21.757913,13.6358759 21.2040054,13.1135029 C20.9374635,12.8594862 20.5189093,12.5009949 20.1336728,12.1691343 C18.0221607,10.3541441 15.8460954,8.30562235 13.8053834,6.61559192 C12.4893325,5.52372984 6.94401011,0.377843248 6.33804361,0.0726135096 L0.176342939,3.40555837 Z"/>
    <path id="logo_color-e" d="M15.8259294,0.0500797705 C15.4219517,0.0500797705 4.5041428,6.10346149 2.36347761,7.24858514 C1.88869973,7.50055331 0.830861293,8.01678079 0.441460136,8.33020461 L10.007818,16.8663947 C10.6679258,17.4850482 15.4719283,21.756216 15.8654942,21.9262434 C16.2319894,21.465326 17.1378156,20.7934108 17.7146291,20.2628437 C18.7995382,19.2672621 20.665332,17.7677442 21.5669935,16.8663947 L25.4172755,13.4699456 C26.2939487,12.6689736 30.7585267,8.82389835 31.1375161,8.33020461 L27.3767755,6.25914914 C25.6900646,5.37418775 16.1778481,0.0623709009 15.8280117,0.0500797705 C15.8280117,0.0500797705 15.8280117,0.0500797705 15.8259294,0.0500797705 Z"/>
    <path id="logo_color-g" d="M29.2194441,15.1452267 C24.6299246,16.0773041 25.9313991,22.4891771 30.4043065,21.813165 C32.0098054,21.5693909 33.5215981,19.928525 33.1738441,17.8800032 C32.9322904,16.4542321 31.5766747,15.079674 29.8712225,15.079674 C29.6588219,15.079674 29.4422565,15.1001592 29.2194441,15.1452267 Z"/>
  </defs>
  <g fill="none" fill-rule="evenodd">
    <polygon fill="#FEFEFE" points=".595 16.316 .595 57.7 58.895 57.7 58.895 16.316 29.787 .007"/>
    <g transform="translate(31.818 15.185)">
      <mask id="logo_color-b" fill="#fff">
        <use xlink:href="#logo_color-a"/>
      </mask>
      <polygon fill="#A5B8D5" points="-4.213 42.811 27.337 42.811 27.337 -4.117 -4.213 -4.117" mask="url(#logo_color-b)"/>
    </g>
    <g transform="translate(4.415 15.185)">
      <mask id="logo_color-d" fill="#fff">
        <use xlink:href="#logo_color-c"/>
      </mask>
      <polygon fill="#005181" points="-4.078 42.799 27.572 42.799 27.572 -4.106 -4.078 -4.106" mask="url(#logo_color-d)"/>
    </g>
    <g transform="translate(13.99 4.943)">
      <mask id="logo_color-f" fill="#fff">
        <use xlink:href="#logo_color-e"/>
      </mask>
      <polygon fill="#36AAC3" points="-3.807 26.105 35.386 26.105 35.386 -4.131 -3.807 -4.131" mask="url(#logo_color-f)"/>
    </g>
    <polygon fill="#36AAC3" points="25.991 53.764 33.535 53.797 29.806 38.165"/>
    <use fill="#FFF" xlink:href="#logo_color-g"/>
    <path fill="#015580" d="M71.6356132 23.6321737C70.7156708 23.7764892 69.00415 23.9414213 67.9130555 23.9414213 65.0248643 23.9414213 64.490014 22.5807315 64.490014 18.704827 64.490014 14.7052235 65.1532283 13.4476162 67.8488735 13.4476162 68.89718 13.4476162 70.6728827 13.6125483 71.6356132 13.7774804L71.7211892 11.9219943C70.8012468 11.7158291 69.046938 11.4065814 67.5279634 11.4065814 63.1421915 11.4065814 62.029703 13.6125483 62.029703 18.704827 62.029703 23.5290911 63.0566154 25.9824561 67.5279634 25.9824561 68.89718 25.9824561 70.6942767 25.735058 71.6997952 25.5288929L71.6356132 23.6321737zM72.9834357 25.7556745L76.5990233 11.6333631 81.3270994 11.6333631 84.964081 25.7556745 82.5679519 25.7556745 81.7763736 22.7250471 76.1497491 22.7250471 75.3581708 25.7556745 72.9834357 25.7556745zM78.4389081 13.5506988L76.6204173 20.7046288 81.3057054 20.7046288 79.5086086 13.5506988 78.4389081 13.5506988zM95.7894497 11.8807612C95.7894497 11.8807612 93.0082285 11.3859649 91.1469497 11.3859649 88.2159704 11.3859649 86.2691155 12.5611062 86.2691155 15.406185 86.2691155 17.85955 87.6383321 18.7872931 90.8046455 19.5707206 93.0510165 20.0861334 93.7142308 20.4984637 93.7142308 21.6942214 93.7142308 23.1786104 92.8798644 23.9620379 91.0613736 23.9620379 89.542399 23.9620379 86.6542077 23.5909406 86.6542077 23.5909406L86.4188736 25.4258103C86.4188736 25.4258103 89.3070649 25.9824561 91.2111317 25.9824561 94.0993229 25.9824561 96.1103598 24.6423828 96.1103598 21.5499058 96.1103598 19.1377738 94.9978713 18.3543463 91.917134 17.5296858 89.4140349 16.8699574 88.6438506 16.5607097 88.6438506 15.2412528 88.6438506 14.0248786 89.563793 13.4063832 91.3608897 13.4063832 92.6017423 13.4063832 95.5969036 13.7362474 95.5969036 13.7362474L95.7894497 11.8807612zM97.4153944 25.7556745L101.030982 11.6333631 105.759058 11.6333631 109.39604 25.7556745 106.999911 25.7556745 106.208332 22.7250471 100.581708 22.7250471 99.7901294 25.7556745 97.4153944 25.7556745zM102.870867 13.5506988L101.052376 20.7046288 105.737664 20.7046288 103.940567 13.5506988 102.870867 13.5506988zM131.78632 11.295869C131.78632 11.295869 128.970782 10.7805501 127.086536 10.7805501 124.119392 10.7805501 122.148515 12.0044324 122.148515 14.9675158 122.148515 17.5226384 123.534626 18.4888612 126.740009 19.3047827 129.014097 19.8415732 129.685495 20.2710056 129.685495 21.5163595 129.685495 23.062316 128.840834 23.8782375 126.999904 23.8782375 125.462187 23.8782375 122.538359 23.4917484 122.538359 23.4917484L122.300121 25.4027224C122.300121 25.4027224 125.223949 25.9824561 127.15151 25.9824561 130.075339 25.9824561 132.11119 24.5868009 132.11119 21.3660581 132.11119 18.8538787 130.984975 18.0379572 127.866224 17.1790925 125.332239 16.4920007 124.552552 16.1699264 124.552552 14.7957428 124.552552 13.5289173 125.483845 12.8847687 127.303116 12.8847687 128.55928 12.8847687 131.591398 13.2283146 131.591398 13.2283146L131.78632 11.295869zM133.432327 25.7462683L137.092528 11.0382095 141.878943 11.0382095 145.560801 25.7462683 143.135107 25.7462683 142.333761 22.5899404 136.63771 22.5899404 135.836364 25.7462683 133.432327 25.7462683zM138.955115 13.0350701L137.114186 20.4857218 141.857285 20.4857218 140.038014 13.0350701 138.955115 13.0350701zM149.979031 21.0439838L149.979031 11.0382095 147.553336 11.0382095 147.553336 21.0010406C147.553336 24.5438577 149.459239 25.9824561 152.989492 25.9824561 156.541402 25.9824561 158.468963 24.5438577 158.468963 21.0010406L158.468963 11.0382095 156.043268 11.0382095 156.043268 21.0439838C156.043268 23.0193728 154.982027 23.8997091 152.989492 23.8997091 151.018615 23.8997091 149.979031 23.0408444 149.979031 21.0439838zM151.366506 10.7596272L152.059771 11.5349599 156.24536 9.64975077 155.373841 8.65735321 151.366506 10.7596272zM166.893921 25.7462683L161.760977 25.7462683 161.760977 11.0382095 166.893921 11.0382095C171.680337 11.0382095 172.82821 13.5718605 172.82821 18.1453153 172.82821 22.8046566 171.788626 25.7462683 166.893921 25.7462683zM170.337541 18.1453153C170.337541 14.9245725 169.882723 13.1209565 166.893921 13.1209565L164.165014 13.1209565 164.165014 23.6420497 166.893921 23.6420497C169.882723 23.6420497 170.337541 21.3660581 170.337541 18.1453153zM175.643749 25.7462683L185 25.7462683 185 23.6420497 178.047785 23.6420497 178.047785 19.347726 183.700521 19.347726 183.700521 17.2864506 178.047785 17.2864506 178.047785 13.1209565 185 13.1209565 185 11.0382095 175.643749 11.0382095 175.643749 25.7462683zM99.3876721 30.9169766C99.3876721 30.9169766 98.3199196 30.7059995 97.6053468 30.7059995 96.4801 30.7059995 95.7326733 31.2070701 95.7326733 32.4201886 95.7326733 33.4662835 96.258336 33.8618656 97.4739311 34.1959127 98.3363466 34.4156805 98.5909645 34.5914948 98.5909645 35.1013562 98.5909645 35.7342875 98.2706387 36.0683346 97.5724929 36.0683346 96.9893358 36.0683346 95.8805159 35.9101018 95.8805159 35.9101018L95.7901676 36.6924753C95.7901676 36.6924753 96.8989875 36.9298246 97.6299873 36.9298246 98.7388071 36.9298246 99.5108743 36.3584282 99.5108743 35.0398212 99.5108743 34.0113077 99.0837733 33.6772606 97.9010321 33.3256321 96.9400549 33.0443292 96.6443696 32.9124685 96.6443696 32.3498629 96.6443696 31.8312108 96.9975493 31.5674894 97.6874816 31.5674894 98.1638635 31.5674894 99.3137508 31.7081408 99.3137508 31.7081408L99.3876721 30.9169766zM100.011897 36.8331267L101.399975 30.811488 103.215154 30.811488 104.611446 36.8331267 103.691536 36.8331267 103.387637 35.5408918 101.227492 35.5408918 100.923593 36.8331267 100.011897 36.8331267zM102.106334 31.6290244L101.408188 34.6794019 103.20694 34.6794019 102.517008 31.6290244 102.106334 31.6290244zM103.56012 28.7720425C103.56012 28.7720425 103.133019 29.1588339 102.935896 29.1588339 102.697705 29.1588339 102.040626 28.7192982 101.580671 28.7192982 101.186424 28.7192982 100.767537 29.2643225 100.767537 29.2643225L100.96466 29.9499981C100.96466 29.9499981 101.375334 29.5632067 101.588885 29.5632067 101.85993 29.5632067 102.549862 30.0027424 102.960536 30.0027424 103.354783 30.0027424 103.757244 29.4665089 103.757244 29.4665089L103.56012 28.7720425zM107.461523 36.0771254C108.553916 36.0771254 108.800321 35.382659 108.800321 33.8530749 108.800321 32.3586536 108.545703 31.5674894 107.461523 31.5674894 106.377344 31.5674894 106.114513 32.3586536 106.114513 33.8530749 106.114513 35.3562869 106.36913 36.0771254 107.461523 36.0771254zM107.461523 36.9298246C105.695625 36.9298246 105.169962 35.8837297 105.169962 33.8530749 105.169962 31.8400015 105.703839 30.7147902 107.461523 30.7147902 109.219208 30.7147902 109.744871 31.8312108 109.744871 33.8530749 109.744871 35.9013111 109.219208 36.9298246 107.461523 36.9298246zM112.611376 36.8331267L113.523072 36.8331267 113.523072 31.8927458 113.646274 31.8927458 114.976858 36.5869867 115.929622 36.5869867 117.260206 31.8927458 117.383408 31.8927458 117.383408 36.8331267 118.303318 36.8331267 118.303318 30.811488 116.709902 30.811488 115.45324 35.5145197 114.196577 30.811488 112.611376 30.811488 112.611376 36.8331267zM119.108239 36.8331267L120.496317 30.811488 122.311496 30.811488 123.707788 36.8331267 122.787878 36.8331267 122.483979 35.5408918 120.323834 35.5408918 120.019935 36.8331267 119.108239 36.8331267zM121.202676 31.6290244L120.50453 34.6794019 122.303283 34.6794019 121.61335 31.6290244 121.202676 31.6290244zM123.970619 31.6817687L125.572248 31.6817687 125.572248 36.8331267 126.492158 36.8331267 126.492158 31.6817687 128.077359 31.6817687 128.077359 30.811488 123.970619 30.811488 123.970619 31.6817687zM128.833 36.8331267L132.381223 36.8331267 132.381223 35.9716368 129.744696 35.9716368 129.744696 34.2134941 131.888414 34.2134941 131.888414 33.3695856 129.744696 33.3695856 129.744696 31.6641872 132.381223 31.6641872 132.381223 30.811488 128.833 30.811488 128.833 36.8331267zM134.245683 34.9079605L134.245683 30.811488 133.325773 30.811488 133.325773 34.8903791C133.325773 36.3408468 134.04856 36.9298246 135.387357 36.9298246 136.734368 36.9298246 137.465368 36.3408468 137.465368 34.8903791L137.465368 30.811488 136.545458 30.811488 136.545458 34.9079605C136.545458 35.7167061 136.142997 36.0771254 135.387357 36.0771254 134.63993 36.0771254 134.245683 35.7254968 134.245683 34.9079605zM142.064917 30.9169766C142.064917 30.9169766 140.997164 30.7059995 140.282591 30.7059995 139.157345 30.7059995 138.409918 31.2070701 138.409918 32.4201886 138.409918 33.4662835 138.935581 33.8618656 140.151176 34.1959127 141.013591 34.4156805 141.268209 34.5914948 141.268209 35.1013562 141.268209 35.7342875 140.947883 36.0683346 140.249737 36.0683346 139.66658 36.0683346 138.55776 35.9101018 138.55776 35.9101018L138.467412 36.6924753C138.467412 36.6924753 139.576232 36.9298246 140.307232 36.9298246 141.416052 36.9298246 142.188119 36.3584282 142.188119 35.0398212 142.188119 34.0113077 141.761018 33.6772606 140.578277 33.3256321 139.617299 33.0443292 139.321614 32.9124685 139.321614 32.3498629 139.321614 31.8312108 139.674794 31.5674894 140.364726 31.5674894 140.841108 31.5674894 141.990995 31.7081408 141.990995 31.7081408L142.064917 30.9169766zM115.673331 16.8596491L115.673331 23.1578947 115.027267 23.1578947 115.027267 22.8596491C115.027267 22.8596491 114.355012 23.245614 113.700218 23.245614 112.844621 23.245614 112.128713 22.8947368 112.128713 21 112.128713 19.4561404 112.626356 18.6842105 113.953405 18.6842105 114.32882 18.6842105 114.896308 18.7719298 115.027267 18.7982456L115.027267 16.8596491 115.673331 16.8596491zM113.778794 22.6578947C114.398665 22.6578947 115.027267 22.3333333 115.027267 22.3333333L115.027267 19.3596491C114.887578 19.3333333 114.346282 19.254386 113.988328 19.254386 113.071616 19.254386 112.800968 19.8596491 112.800968 21 112.800968 22.4210526 113.263689 22.6578947 113.778794 22.6578947zM118.554424 22.6666667C119.209218 22.6666667 120.160852 22.5877193 120.160852 22.5877193L120.178313 23.1052632C120.178313 23.1052632 119.183026 23.245614 118.475849 23.245614 117.174991 23.245614 116.747193 22.4824561 116.747193 20.9912281 116.747193 19.3245614 117.463101 18.6842105 118.571885 18.6842105 119.733053 18.6842105 120.326733 19.2982456 120.326733 20.7368421L120.29181 21.2368421 117.410717 21.2368421C117.410717 22.1754386 117.698826 22.6666667 118.554424 22.6666667zM117.401987 20.7105263L119.671939 20.7105263C119.671939 19.622807 119.340177 19.2368421 118.571885 19.2368421 117.829785 19.2368421 117.410717 19.6491228 117.401987 20.7105263z"/>
    <rect width="120.238" height="1" x="63.851" y="40.579" fill="#015580"/>
    <path fill="#015580" d="M100.077087,54.1232057 L101.61041,54.1232057 L101.61041,46.1925837 L100.077087,46.1925837 L100.077087,49.4348086 L97.2659959,49.4348086 L97.2659959,46.1925837 L95.7326733,46.1925837 L95.7326733,54.1232057 L97.2659959,54.1232057 L97.2659959,50.8343301 L100.077087,50.8343301 L100.077087,54.1232057 Z M106.054824,52.8636364 C107.299259,52.8636364 107.610368,52.0355861 107.610368,50.2045455 C107.610368,48.3735048 107.299259,47.4521531 106.054824,47.4521531 C104.810388,47.4521531 104.499279,48.3735048 104.499279,50.2045455 C104.499279,52.0355861 104.810388,52.8636364 106.054824,52.8636364 Z M106.054824,54.2631579 C103.677062,54.2631579 102.921512,52.8869617 102.921512,50.2045455 C102.921512,47.5221292 103.677062,46.0526316 106.054824,46.0526316 C108.432585,46.0526316 109.188135,47.5221292 109.188135,50.2045455 C109.188135,52.8869617 108.432585,54.2631579 106.054824,54.2631579 Z M115.15476,46.3675239 C115.15476,46.3675239 113.676993,46.0526316 112.665889,46.0526316 C111.132566,46.0526316 110.088129,46.764055 110.088129,48.4084928 C110.088129,49.6797249 110.732569,50.2861842 112.432557,50.7993421 C113.521438,51.1258971 113.788103,51.347488 113.788103,51.8373206 C113.788103,52.4554426 113.43255,52.8636364 112.610333,52.8636364 C111.82145,52.8636364 110.332572,52.6537081 110.332572,52.6537081 L110.177017,53.9016148 C110.177017,53.9016148 111.665896,54.2631579 112.699222,54.2631579 C114.1881,54.2631579 115.310315,53.458433 115.310315,51.7323565 C115.310315,50.4144737 114.810318,49.9363038 113.176996,49.3881579 C111.910338,48.9683014 111.61034,48.7933612 111.61034,48.291866 C111.61034,47.7670455 111.999227,47.4521531 112.821443,47.4521531 C113.465883,47.4521531 115.032539,47.638756 115.032539,47.638756 L115.15476,46.3675239 Z M119.321398,51.8139952 L118.076962,51.8139952 L118.076962,54.1232057 L116.543639,54.1232057 L116.543639,46.1925837 L119.321398,46.1925837 C121.099163,46.1925837 122.010268,47.1022727 122.010268,48.9449761 C122.010268,50.7876794 121.099163,51.8139952 119.321398,51.8139952 Z M118.076962,50.437799 L119.310287,50.437799 C120.076948,50.437799 120.454723,49.9479665 120.454723,48.9449761 C120.454723,47.9536483 120.076948,47.5687799 119.310287,47.5687799 L118.076962,47.5687799 L118.076962,50.437799 Z M123.088038,54.1232057 L124.621361,54.1232057 L124.621361,46.1925837 L123.088038,46.1925837 L123.088038,54.1232057 Z M125.588021,47.6154306 L127.610229,47.6154306 L127.610229,54.1232057 L129.143552,54.1232057 L129.143552,47.6154306 L131.143538,47.6154306 L131.143538,46.1925837 L125.588021,46.1925837 L125.588021,47.6154306 Z M131.476869,54.1232057 L133.176857,46.1925837 L136.087948,46.1925837 L137.787936,54.1232057 L136.254613,54.1232057 L135.954615,52.6886962 L133.310189,52.6886962 L133.010191,54.1232057 L131.476869,54.1232057 Z M134.365737,47.5221292 L133.599076,51.2891746 L135.665728,51.2891746 L134.899067,47.5221292 L134.365737,47.5221292 Z M143.09901,54.1232057 L143.09901,52.7003589 L140.332363,52.7003589 L140.332363,46.1925837 L138.79904,46.1925837 L138.79904,54.1232057 L143.09901,54.1232057 Z"/>
  </g>
</svg>
