<svg xmlns="http://www.w3.org/2000/svg" width="174" height="49" viewBox="0 0 174 49">
  <g fill="#FFF" fill-rule="evenodd">
    <path d="M0 49L49.4421588 49 49.4421588 13.6446474 24.7215726 0 0 13.6446474 0 49zM21.3484865 13.7821999C21.3484865 11.9182912 22.8593228 10.4083068 24.7228279 10.4083068 26.5857503 10.4083068 28.0959588 11.9182912 28.0959588 13.7821999 28.0959588 15.6457051 26.5857503 17.155286 24.7228279 17.155286 22.8593228 17.155286 21.3484865 15.6457051 21.3484865 13.7821999zM11.6437242 10.8666061L24.7218416 22.6113874 37.799421 10.8669648 24.7215726 3.64837049 11.6437242 10.8666061zM41.0695668 12.6720505L26.6077192 25.660409 31.3900015 45.8335566 46.2471109 45.8335566 46.2471109 15.5299422 41.0695668 12.6720505zM27.7640035 45.8335566L24.7218416 33.0007741 21.679052 45.8335566 27.7640035 45.8335566zM18.0517538 45.8335566L22.8343947 25.660409 8.37295065 12.6720505 3.19491338 15.5299422 3.19491338 45.8335566 18.0517538 45.8335566zM66.9870833 17.9054167C66.1091667 18.0483333 64.4758333 18.2116667 63.4345833 18.2116667 60.6783333 18.2116667 60.1679167 16.8641667 60.1679167 13.0258333 60.1679167 9.065 60.8008333 7.81958333 63.3733333 7.81958333 64.37375 7.81958333 66.0683333 7.98291667 66.9870833 8.14625L67.06875 6.30875C66.1908333 6.10458333 64.5166667 5.79833333 63.0670833 5.79833333 58.8816667 5.79833333 57.82 7.98291667 57.82 13.0258333 57.82 17.8033333 58.8 20.2329167 63.0670833 20.2329167 64.37375 20.2329167 66.08875 19.9879167 67.0483333 19.78375L66.9870833 17.9054167zM68.2733333 20.0083333L71.72375 6.02291667 76.2358333 6.02291667 79.7066667 20.0083333 77.42 20.0083333 76.6645833 17.0070833 71.295 17.0070833 70.5395833 20.0083333 68.2733333 20.0083333zM73.4795833 7.92166667L71.7441667 15.00625 76.2154167 15.00625 74.5004167 7.92166667 73.4795833 7.92166667zM90.0375 6.26791667C90.0375 6.26791667 87.3833333 5.77791667 85.6070833 5.77791667 82.81 5.77791667 80.9520833 6.94166667 80.9520833 9.75916667 80.9520833 12.18875 82.25875 13.1075 85.2804167 13.8833333 87.4241667 14.39375 88.0570833 14.8020833 88.0570833 15.98625 88.0570833 17.45625 87.2608333 18.2320833 85.5254167 18.2320833 84.0758333 18.2320833 81.3195833 17.8645833 81.3195833 17.8645833L81.095 19.6816667C81.095 19.6816667 83.85125 20.2329167 85.6683333 20.2329167 88.4245833 20.2329167 90.34375 18.9058333 90.34375 15.8433333 90.34375 13.4545833 89.2820833 12.67875 86.3420833 11.8620833 83.9533333 11.20875 83.2183333 10.9025 83.2183333 9.59583333 83.2183333 8.39125 84.09625 7.77875 85.81125 7.77875 86.9954167 7.77875 89.85375 8.10541667 89.85375 8.10541667L90.0375 6.26791667zM91.5891667 20.0083333L95.0395833 6.02291667 99.5516667 6.02291667 103.0225 20.0083333 100.735833 20.0083333 99.9804167 17.0070833 94.6108333 17.0070833 93.8554167 20.0083333 91.5891667 20.0083333zM96.7954167 7.92166667L95.06 15.00625 99.53125 15.00625 97.81625 7.92166667 96.7954167 7.92166667zM123.459583 6.26791667C123.459583 6.26791667 120.805417 5.77791667 119.029167 5.77791667 116.232083 5.77791667 114.374167 6.94166667 114.374167 9.75916667 114.374167 12.18875 115.680833 13.1075 118.7025 13.8833333 120.84625 14.39375 121.479167 14.8020833 121.479167 15.98625 121.479167 17.45625 120.682917 18.2320833 118.9475 18.2320833 117.497917 18.2320833 114.741667 17.8645833 114.741667 17.8645833L114.517083 19.6816667C114.517083 19.6816667 117.273333 20.2329167 119.090417 20.2329167 121.846667 20.2329167 123.765833 18.9058333 123.765833 15.8433333 123.765833 13.4545833 122.704167 12.67875 119.764167 11.8620833 117.375417 11.20875 116.640417 10.9025 116.640417 9.59583333 116.640417 8.39125 117.518333 7.77875 119.233333 7.77875 120.4175 7.77875 123.275833 8.10541667 123.275833 8.10541667L123.459583 6.26791667zM125.01125 20.0083333L128.461667 6.02291667 132.97375 6.02291667 136.444583 20.0083333 134.157917 20.0083333 133.4025 17.0070833 128.032917 17.0070833 127.2775 20.0083333 125.01125 20.0083333zM130.2175 7.92166667L128.482083 15.00625 132.953333 15.00625 131.238333 7.92166667 130.2175 7.92166667zM140.609583 15.5370833L140.609583 6.02291667 138.322917 6.02291667 138.322917 15.49625C138.322917 18.865 140.119583 20.2329167 143.4475 20.2329167 146.795833 20.2329167 148.612917 18.865 148.612917 15.49625L148.612917 6.02291667 146.32625 6.02291667 146.32625 15.5370833C146.32625 17.4154167 145.325833 18.2525 143.4475 18.2525 141.589583 18.2525 140.609583 17.4358333 140.609583 15.5370833zM141.917808 5.75376617L142.572874 6.49188427 146.516911 4.70693178 145.693383 3.76219386 141.917808 5.75376617zM156.555 20.0083333L151.71625 20.0083333 151.71625 6.02291667 156.555 6.02291667C161.067083 6.02291667 162.149167 8.43208333 162.149167 12.7808333 162.149167 17.21125 161.169167 20.0083333 156.555 20.0083333zM159.80125 12.7808333C159.80125 9.71833333 159.3725 8.00333333 156.555 8.00333333L153.9825 8.00333333 153.9825 18.0075 156.555 18.0075C159.3725 18.0075 159.80125 15.8433333 159.80125 12.7808333zM164.803333 20.0083333L173.623333 20.0083333 173.623333 18.0075 167.069583 18.0075 167.069583 13.9241667 172.398333 13.9241667 172.398333 11.9641667 167.069583 11.9641667 167.069583 8.00333333 173.623333 8.00333333 173.623333 6.02291667 164.803333 6.02291667 164.803333 20.0083333zM92.794975 24.586975C92.794975 24.586975 91.7863917 24.400775 91.1114167 24.400775 90.048525 24.400775 89.3425167 24.843 89.3425167 25.91365 89.3425167 26.8368917 89.83905 27.1860167 90.9872833 27.4808333 91.8019083 27.6747917 92.0424167 27.8299583 92.0424167 28.2799417 92.0424167 28.8385417 91.7398417 29.1333583 91.0803833 29.1333583 90.5295417 29.1333583 89.4821667 28.9937083 89.4821667 28.9937083L89.396825 29.6842C89.396825 29.6842 90.4442 29.893675 91.1346917 29.893675 92.1820667 29.893675 92.91135 29.3893833 92.91135 28.2256333 92.91135 27.3179083 92.5079167 27.0230917 91.3907167 26.7127583 90.4829917 26.4644917 90.2036917 26.3481167 90.2036917 25.8515833 90.2036917 25.3938417 90.5373 25.1610917 91.189 25.1610917 91.6389833 25.1610917 92.72515 25.285225 92.72515 25.285225L92.794975 24.586975zM93.3846083 29.8083333L94.6957667 24.493875 96.4103583 24.493875 97.729275 29.8083333 96.8603417 29.8083333 96.5732833 28.6678583 94.5328417 28.6678583 94.2457833 29.8083333 93.3846083 29.8083333zM95.3629833 25.2154L94.703525 27.9075417 96.4026 27.9075417 95.7509 25.2154 95.3629833 25.2154zM96.7362083 22.6939417C96.7362083 22.6939417 96.332775 23.0353083 96.146575 23.0353083 95.9215833 23.0353083 95.3009167 22.6473917 94.86645 22.6473917 94.49405 22.6473917 94.098375 23.1284083 94.098375 23.1284083L94.284575 23.7335583C94.284575 23.7335583 94.6724917 23.3921917 94.8742083 23.3921917 95.1302333 23.3921917 95.7819333 23.7801083 96.16985 23.7801083 96.54225 23.7801083 96.9224083 23.30685 96.9224083 23.30685L96.7362083 22.6939417zM100.421417 29.1411167C101.453275 29.1411167 101.686025 28.5282083 101.686025 27.1782583 101.686025 25.8593417 101.445517 25.1610917 100.421417 25.1610917 99.3973167 25.1610917 99.14905 25.8593417 99.14905 27.1782583 99.14905 28.5049333 99.3895583 29.1411167 100.421417 29.1411167zM100.421417 29.893675C98.753375 29.893675 98.2568417 28.9704333 98.2568417 27.1782583 98.2568417 25.4016 98.7611333 24.4085333 100.421417 24.4085333 102.0817 24.4085333 102.578233 25.3938417 102.578233 27.1782583 102.578233 28.98595 102.0817 29.893675 100.421417 29.893675zM105.285892 29.8083333L106.147067 29.8083333 106.147067 25.44815 106.263442 25.44815 107.520292 29.5911 108.420258 29.5911 109.677108 25.44815 109.793483 25.44815 109.793483 29.8083333 110.662417 29.8083333 110.662417 24.493875 109.1573 24.493875 107.970275 28.6445833 106.78325 24.493875 105.285892 24.493875 105.285892 29.8083333zM111.422733 29.8083333L112.733892 24.493875 114.448483 24.493875 115.7674 29.8083333 114.898467 29.8083333 114.611408 28.6678583 112.570967 28.6678583 112.283908 29.8083333 111.422733 29.8083333zM113.401108 25.2154L112.74165 27.9075417 114.440725 27.9075417 113.789025 25.2154 113.401108 25.2154zM116.015667 25.26195L117.528542 25.26195 117.528542 29.8083333 118.397475 29.8083333 118.397475 25.26195 119.894833 25.26195 119.894833 24.493875 116.015667 24.493875 116.015667 25.26195zM120.6086 29.8083333L123.9602 29.8083333 123.9602 29.0480167 121.469775 29.0480167 121.469775 27.49635 123.4947 27.49635 123.4947 26.75155 121.469775 26.75155 121.469775 25.2464333 123.9602 25.2464333 123.9602 24.493875 120.6086 24.493875 120.6086 29.8083333zM125.721342 28.1092583L125.721342 24.493875 124.852408 24.493875 124.852408 28.0937417C124.852408 29.3738667 125.535142 29.893675 126.79975 29.893675 128.072117 29.893675 128.762608 29.3738667 128.762608 28.0937417L128.762608 24.493875 127.893675 24.493875 127.893675 28.1092583C127.893675 28.823025 127.513517 29.1411167 126.79975 29.1411167 126.093742 29.1411167 125.721342 28.8307833 125.721342 28.1092583zM133.107275 24.586975C133.107275 24.586975 132.098692 24.400775 131.423717 24.400775 130.360825 24.400775 129.654817 24.843 129.654817 25.91365 129.654817 26.8368917 130.15135 27.1860167 131.299583 27.4808333 132.114208 27.6747917 132.354717 27.8299583 132.354717 28.2799417 132.354717 28.8385417 132.052142 29.1333583 131.392683 29.1333583 130.841842 29.1333583 129.794467 28.9937083 129.794467 28.9937083L129.709125 29.6842C129.709125 29.6842 130.7565 29.893675 131.446992 29.893675 132.494367 29.893675 133.22365 29.3893833 133.22365 28.2256333 133.22365 27.3179083 132.820217 27.0230917 131.703017 26.7127583 130.795292 26.4644917 130.515992 26.3481167 130.515992 25.8515833 130.515992 25.3938417 130.8496 25.1610917 131.5013 25.1610917 131.951283 25.1610917 133.03745 25.285225 133.03745 25.285225L133.107275 24.586975zM108.479467 11.1711833L108.479467 16.7416667 107.90535 16.7416667 107.90535 16.4778833C107.90535 16.4778833 107.307958 16.81925 106.726083 16.81925 105.965767 16.81925 105.329583 16.5089167 105.329583 14.8331167 105.329583 13.46765 105.771808 12.7849167 106.951075 12.7849167 107.284683 12.7849167 107.788975 12.8625 107.90535 12.885775L107.90535 11.1711833 108.479467 11.1711833zM106.795908 16.2994417C107.34675 16.2994417 107.90535 16.0123833 107.90535 16.0123833L107.90535 13.3823083C107.781217 13.3590333 107.3002 13.2892083 106.982108 13.2892083 106.167483 13.2892083 105.926975 13.8245333 105.926975 14.8331167 105.926975 16.0899667 106.338167 16.2994417 106.795908 16.2994417zM111.039717 16.3072C111.621592 16.3072 112.46725 16.237375 112.46725 16.237375L112.482767 16.6951167C112.482767 16.6951167 111.598317 16.81925 110.969892 16.81925 109.8139 16.81925 109.433742 16.144275 109.433742 14.8253583 109.433742 13.351275 110.069925 12.7849167 111.055233 12.7849167 112.087092 12.7849167 112.614658 13.328 112.614658 14.6003667L112.583625 15.0425917 110.023375 15.0425917C110.023375 15.8727333 110.2794 16.3072 111.039717 16.3072zM110.015617 14.5770917L112.032783 14.5770917C112.032783 13.6150583 111.737967 13.2736917 111.055233 13.2736917 110.395775 13.2736917 110.023375 13.6383333 110.015617 14.5770917z"/>
    <rect width="113.517" height="1" x="59.208" y="33.892"/>
    <path d="M93.5450833,46.3210067 L95.0101833,46.3210067 L95.0101833,39.1016733 L93.5450833,39.1016733 L93.5450833,42.0531067 L90.8590667,42.0531067 L90.8590667,39.1016733 L89.3939667,39.1016733 L89.3939667,46.3210067 L90.8590667,46.3210067 L90.8590667,43.3271067 L93.5450833,43.3271067 L93.5450833,46.3210067 Z M99.25685,45.1744067 C100.445917,45.1744067 100.743183,44.4206233 100.743183,42.7538067 C100.743183,41.08699 100.445917,40.2482733 99.25685,40.2482733 C98.0677833,40.2482733 97.7705167,41.08699 97.7705167,42.7538067 C97.7705167,44.4206233 98.0677833,45.1744067 99.25685,45.1744067 Z M99.25685,46.4484067 C96.9848833,46.4484067 96.26295,45.19564 96.26295,42.7538067 C96.26295,40.3119733 96.9848833,38.9742733 99.25685,38.9742733 C101.528817,38.9742733 102.25075,40.3119733 102.25075,42.7538067 C102.25075,45.19564 101.528817,46.4484067 99.25685,46.4484067 Z M107.9519,39.2609233 C107.9519,39.2609233 106.539883,38.9742733 105.573767,38.9742733 C104.108667,38.9742733 103.1107,39.62189 103.1107,41.11884 C103.1107,42.2760567 103.726467,42.8281233 105.350817,43.2952567 C106.39125,43.5925233 106.64605,43.79424 106.64605,44.24014 C106.64605,44.8028233 106.306317,45.1744067 105.520683,45.1744067 C104.7669,45.1744067 103.344267,44.9833067 103.344267,44.9833067 L103.195633,46.11929 C103.195633,46.11929 104.618267,46.4484067 105.605617,46.4484067 C107.02825,46.4484067 108.100533,45.7158567 108.100533,44.14459 C108.100533,42.9449067 107.622783,42.5096233 106.062133,42.01064 C104.851833,41.62844 104.565183,41.46919 104.565183,41.0126733 C104.565183,40.5349233 104.936767,40.2482733 105.7224,40.2482733 C106.338167,40.2482733 107.835117,40.41814 107.835117,40.41814 L107.9519,39.2609233 Z M111.93315,44.2189067 L110.744083,44.2189067 L110.744083,46.3210067 L109.278983,46.3210067 L109.278983,39.1016733 L111.93315,39.1016733 C113.631817,39.1016733 114.502383,39.9297733 114.502383,41.6072067 C114.502383,43.28464 113.631817,44.2189067 111.93315,44.2189067 Z M110.744083,42.96614 L111.922533,42.96614 C112.655083,42.96614 113.01605,42.52024 113.01605,41.6072067 C113.01605,40.70479 112.655083,40.35444 111.922533,40.35444 L110.744083,40.35444 L110.744083,42.96614 Z M115.5322,46.3210067 L116.9973,46.3210067 L116.9973,39.1016733 L115.5322,39.1016733 L115.5322,46.3210067 Z M117.92095,40.3969067 L119.853183,40.3969067 L119.853183,46.3210067 L121.318283,46.3210067 L121.318283,40.3969067 L123.229283,40.3969067 L123.229283,39.1016733 L117.92095,39.1016733 L117.92095,40.3969067 Z M123.547783,46.3210067 L125.172133,39.1016733 L127.9537,39.1016733 L129.57805,46.3210067 L128.11295,46.3210067 L127.8263,45.0151567 L125.299533,45.0151567 L125.012883,46.3210067 L123.547783,46.3210067 Z M126.308117,40.3119733 L125.575567,43.7411567 L127.550267,43.7411567 L126.817717,40.3119733 L126.308117,40.3119733 Z M134.652817,46.3210067 L134.652817,45.0257733 L132.009267,45.0257733 L132.009267,39.1016733 L130.544167,39.1016733 L130.544167,46.3210067 L134.652817,46.3210067 Z"/>
  </g>
</svg>
