<svg width="59px" height="58px" viewBox="0 0 59 58" version="1.1" xmlns="http://www.w3.org/2000/svg" xmlns:xlink="http://www.w3.org/1999/xlink">
    <defs>
        <path d="M46.0782309,17.0780841 C42.7297975,20.1344786 38.8045505,23.4551323 35.48527,26.4131977 C34.7960092,27.0298027 34.2712547,27.5398846 33.4049933,28.2650613 C33.1759338,28.4535253 33.1113806,28.566194 32.89898,28.7628521 L31.2684928,30.1415072 L36.9387567,53.8080788 C37.798771,53.7834965 40.6661796,53.7957877 43.8313654,53.8080788 C48.5687325,53.828564 53.970372,53.8470007 54.3202084,53.7363805 L54.3202084,18.6021843 C53.7621361,18.1863344 48.6999211,15.4986739 48.2126491,15.2548998 C47.7649418,15.4904798 46.4655497,16.7257384 46.0782309,17.0780841 Z" id="path-1"></path>
        <path d="M4.00624708,18.5980873 L4,53.7916906 L21.4293459,53.8121758 L27.1516688,30.1292161 C26.5602788,29.7789189 25.5878171,28.8284048 25.0339096,28.3060318 C24.7673676,28.0520151 24.3488134,27.6935238 23.963577,27.3616632 C21.8520648,25.546673 19.6759995,23.4981512 17.6352876,21.8081208 C16.3192366,20.7162587 10.7739143,15.5703721 10.1679477,15.2651424 L4.00624708,18.5980873 Z" id="path-3"></path>
        <path d="M29.2298632,5 C28.8258856,5 17.9080766,11.0533817 15.7674114,12.1985054 C15.2926336,12.4504735 14.2347951,12.966701 13.845394,13.2801248 L23.4117518,21.8163149 C24.0718597,22.4349685 28.8758622,26.7061363 29.269428,26.8761636 C29.6359233,26.4152462 30.5417495,25.7433311 31.118563,25.2127639 C32.2034721,24.2171824 34.0692658,22.7176645 34.9709273,21.8163149 L38.8212094,18.4198659 C39.6978826,17.6188939 44.1624605,13.7738186 44.5414499,13.2801248 L40.7807093,11.2090694 C39.0939984,10.324108 29.5817819,5.01229113 29.2319456,5 C29.2319456,5 29.2319456,5 29.2298632,5 Z" id="path-5"></path>
        <path d="M28.6343085,15.1524737 C24.044789,16.0845511 25.3462634,22.4964241 29.8191709,21.8204119 C31.4246697,21.5766379 32.9364625,19.935772 32.5887085,17.8872502 C32.3471548,16.4614791 30.991539,15.086921 29.2860869,15.086921 C29.0736863,15.086921 28.8571209,15.1074062 28.6343085,15.1524737 Z" id="path-7"></path>
    </defs>
    <g stroke="none" stroke-width="1" fill="none" fill-rule="evenodd">
        <g transform="translate(-224.000000, -209.000000)">
            <g transform="translate(224.000000, 209.000000)">
                <polygon fill="#FEFEFE" points="3.59538242e-15 16.3951994 3.59538242e-15 58 59 58 59 16.3951994 29.5432011 0"></polygon>
                <mask fill="white">
                    <use xlink:href="#path-1"></use>
                </mask>
                <use fill="#A5B8D5" xlink:href="#path-1"></use>
                <mask fill="white">
                    <use xlink:href="#path-3"></use>
                </mask>
                <use fill="#005181" xlink:href="#path-3"></use>
                <mask fill="white">
                    <use xlink:href="#path-5"></use>
                </mask>
                <use fill="#36AAC3" xlink:href="#path-5"></use>
                <polygon fill="#36AAC3" points="25.4058189 53.7716151 32.950206 53.8043915 29.2207008 38.1721221"></polygon>
                <mask fill="white">
                    <use xlink:href="#path-7"></use>
                </mask>
                <use fill="#FFFFFF" xlink:href="#path-7"></use>
            </g>
        </g>
    </g>
</svg>