<svg xmlns="http://www.w3.org/2000/svg" width="34" height="34" viewBox="0 0 34 34">
  <path fill="#FFFFFF" d="M2,30.5857864 L7.40400433,25.1817821 C7.59154071,24.9942457 7.84589462,24.8888889 8.11111111,24.8888889 L29.4444444,24.8888889 C30.8558388,24.8888889 32,23.7447277 32,22.3333333 L32,4.55555556 C32,3.14416119 30.8558388,2 29.4444444,2 L4.55555556,2 C3.14416119,2 2,3.14416119 2,4.55555556 L2,30.5857864 Z M8.52532467,26.8888889 L1.70710678,33.7071068 C1.07714192,34.3370716 0,33.8909049 0,33 L0,4.55555556 C0,2.0395917 2.0395917,0 4.55555556,0 L29.4444444,0 C31.9604083,0 34,2.0395917 34,4.55555556 L34,22.3333333 C34,24.8492972 31.9604083,26.8888889 29.4444444,26.8888889 L8.52532467,26.8888889 Z"/>
</svg>
