<svg xmlns="http://www.w3.org/2000/svg" width="84" height="60" viewBox="0 0 84 60">
  <g fill="none">
    <path fill="#00C7E8" d="M39.298,59.29 C38.332,59.29 37.548,58.5166667 37.548,57.5638095 L37.555,49.7925 C37.562,45.8671429 37.5725,41.9452381 37.5305,38.0233333 C37.52,37.0704762 38.297,36.2902381 39.263,36.279881 C39.27,36.279881 39.2735,36.279881 39.2805,36.279881 C40.236,36.279881 41.02,37.0428571 41.0305,37.9888095 C41.0725,41.9245238 41.062,45.8602381 41.055,49.7994048 L41.048,57.5638095 C41.048,58.5166667 40.264,59.29 39.298,59.29 Z"/>
    <path fill="#FFF" d="M10.5219404,2.57566503 C14.4976579,1.95741565 19.4713308,3.36042293 23.0707977,6.32696465 C38.5597235,19.0923396 40.0710974,38.6489173 24.6459685,47.823379 C16.0157792,52.9563889 0.53848048,41.124944 11.0309144,35.7645825 C10.6864646,31.231976 10.1145412,27.9206658 9.31514401,25.8306518 C11.0948417,23.4525978 11.0948417,21.7847882 9.31514401,20.8272228 C-6.33103899,12.2256358 5.73655818,3.68602038 10.5219404,2.57566503 Z" transform="matrix(-1 0 0 1 37.037 0)"/>
    <path fill="#00C7E8" d="M18.242,50.6659524 C9.849,50.6659524 2.492,44.4240476 0.7525,35.827619 C-1.33,25.549881 1.771,15.9453571 9.968,7.27988095 C13.818,3.20607143 18.7285,1.00345238 24.57,0.727261905 L25.1615,0.71 C29.491,0.71 33.2325,2.96095238 35.161,6.73095238 C36.8165,9.96238095 36.9215,13.4182143 35.462,16.4632143 C34.139,19.2216667 31.626,21.3690476 28.413,22.560119 C30.583,27.2553571 29.96,30.9770238 26.481,34.0185714 C26.684,34.1428571 26.88,34.2705952 27.076,34.4052381 C29.7045,36.2246429 31.1745,38.8104762 31.115,41.499881 C31.0555,44.0891667 29.5575,46.502381 26.9955,48.1180952 C24.8395,49.4783333 22.1865,50.3828571 19.712,50.6003571 C19.222,50.6452381 18.7355,50.6659524 18.242,50.6659524 Z M25.1615,4.16238095 L24.7415,4.1727381 C19.8415,4.4075 15.729,6.24761905 12.523,9.63440476 C5.04,17.5507143 2.31,25.8985714 4.186,35.1544048 C5.6,42.1420238 11.5115,47.2135714 18.2455,47.2135714 C18.6305,47.2135714 19.019,47.1963095 19.4075,47.1617857 C21.3115,46.9960714 23.443,46.2641667 25.116,45.2146429 C26.698,44.2134524 27.5905,42.8670238 27.622,41.427381 C27.657,39.9117857 26.726,38.3789286 25.0705,37.2327381 C24.584,36.8944048 24.0555,36.6113095 23.471,36.2971429 L22.4,35.7067857 C21.8715,35.4029762 21.539,34.8471429 21.5285,34.2395238 C21.518,33.6319048 21.833,33.0657143 22.3545,32.7446429 C26.81,30.0069048 27.321,27.39 24.3705,22.3667857 C24.0905,21.8869048 24.059,21.3103571 24.283,20.8063095 C24.507,20.3022619 24.962,19.9328571 25.508,19.8154762 C28.686,19.1215476 31.1605,17.3608333 32.298,14.9890476 C33.2885,12.9245238 33.1975,10.5458333 32.039,8.29142857 C30.716,5.70559524 28.1435,4.16238095 25.1615,4.16238095 Z"/>
    <path fill="#00C7E8" d="M39.2805 39.7322619C38.325 39.7322619 37.541 38.9692857 37.5305 38.0233333 37.492 34.2257143 35.4515 32.3027381 31.2935 32.1370238 30.331 32.0955952 29.5785 31.2946429 29.617 30.3383333 29.6625 29.3889286 30.569 28.7122619 31.4405 28.6846429 37.4815 28.9263095 40.978 32.3165476 41.034 37.9888095 41.0445 38.9416667 40.2675 39.7219048 39.3015 39.7322619 39.291 39.7322619 39.2875 39.7322619 39.2805 39.7322619zM31.591 25.6845238C30.9435 25.6845238 30.3275 25.3289286 30.023 24.7213095 29.596 23.865119 29.9495 22.8294048 30.821 22.4116667L35.5775 20.1020238C36.4455 19.6808333 37.492 20.0295238 37.919 20.8891667 38.346 21.7488095 37.9925 22.7810714 37.121 23.1988095L32.3645 25.5084524C32.1125 25.6292857 31.85 25.6845238 31.591 25.6845238zM44.7055 59.29C43.7395 59.29 42.9555 58.5166667 42.9555 57.5638095L42.9485 50.1895238C42.938 46.122619 42.9275 42.0557143 42.973 37.9888095 42.9835 37.0428571 43.7675 36.279881 44.723 36.279881 44.73 36.279881 44.737 36.279881 44.7405 36.279881 45.7065 36.2902381 46.4835 37.0704762 46.473 38.0233333 46.4275 42.0764286 46.438 46.1329762 46.4485 50.182619L46.4555 57.5638095C46.4555 58.5166667 45.6715 59.29 44.7055 59.29z"/>
    <path fill="#FFF" d="M57.5219404,2.57566503 C61.4976579,1.95741565 66.4713308,3.36042293 70.0707977,6.32696465 C85.5597235,19.0923396 87.0710974,38.6489173 71.6459685,47.823379 C63.0157792,52.9563889 47.5384805,41.124944 58.0309144,35.7645825 C57.6864646,31.231976 57.1145412,27.9206658 56.315144,25.8306518 C58.0948417,23.4525978 58.0948417,21.7847882 56.315144,20.8272228 C40.668961,12.2256358 52.7365582,3.68602038 57.5219404,2.57566503 Z"/>
    <path fill="#00C7E8" d="M65.758,50.6659524 C65.268,50.6659524 64.778,50.6452381 64.281,50.6003571 C61.81,50.3828571 59.157,49.4783333 57.001,48.1180952 C54.4425,46.502381 52.941,44.0891667 52.8815,41.499881 C52.822,38.8139286 54.292,36.2280952 56.917,34.4052381 C57.113,34.2705952 57.309,34.1428571 57.5155,34.0185714 C54.0365,30.9735714 53.4135,27.2553571 55.5835,22.560119 C52.374,21.3690476 49.861,19.2216667 48.538,16.4666667 C47.0785,13.4182143 47.1835,9.96238095 48.839,6.73440476 C50.771,2.96440476 54.509,0.713452381 58.835,0.713452381 L59.4265,0.730714286 C65.268,1.00690476 70.182,3.21297619 74.032,7.28333333 C82.2255,15.9522619 85.3265,25.5567857 83.2475,35.8310714 C81.5045,44.4240476 74.151,50.6659524 65.758,50.6659524 Z M58.8385,4.16238095 C55.8565,4.16238095 53.2875,5.70559524 51.9645,8.28797619 C50.806,10.542381 50.715,12.9245238 51.7055,14.9855952 C52.843,17.3608333 55.3175,19.1180952 58.4955,19.8120238 C59.038,19.9294048 59.493,20.3022619 59.7205,20.8028571 C59.941,21.3069048 59.913,21.8834524 59.633,22.3633333 C56.6825,27.3865476 57.1935,30.0034524 61.649,32.7411905 C62.1705,33.0622619 62.4855,33.6284524 62.475,34.2360714 C62.4645,34.8436905 62.132,35.3995238 61.6035,35.7033333 L60.536,36.2936905 C59.9515,36.6113095 59.423,36.8944048 58.933,37.2292857 C57.2775,38.3754762 56.35,39.904881 56.3815,41.4239286 C56.413,42.8635714 57.3055,44.21 58.8875,45.2111905 C60.5605,46.2641667 62.692,46.9960714 64.5925,47.1583333 C71.8305,47.7970238 78.316,42.5390476 79.8175,35.1475 C81.69,25.895119 78.96,17.5472619 71.477,9.6275 C68.271,6.24071429 64.1585,4.40059524 59.2585,4.16583333 L58.8385,4.16238095 Z"/>
    <path fill="#00C7E8" d="M44.723 39.7322619C44.716 39.7322619 44.7125 39.7322619 44.7055 39.7322619 43.7395 39.7219048 42.9625 38.9416667 42.973 37.9888095 43.0325 32.3130952 46.529 28.9263095 52.5665 28.6846429 53.6095 28.7088095 54.3445 29.3889286 54.39 30.3383333 54.4285 31.2911905 53.676 32.0955952 52.7135 32.1370238 48.5555 32.3027381 46.515 34.2257143 46.4765 38.0233333 46.4625 38.9692857 45.6785 39.7322619 44.723 39.7322619zM52.4125 25.6845238C52.1535 25.6845238 51.891 25.6258333 51.639 25.505L46.8825 23.1953571C46.0145 22.777619 45.6575 21.7419048 46.0845 20.8857143 46.5115 20.0295238 47.5615 19.6808333 48.426 20.0985714L53.1825 22.4082143C54.0505 22.8259524 54.4075 23.8616667 53.9805 24.7178571 53.676 25.332381 53.0565 25.6845238 52.4125 25.6845238z"/>
  </g>
</svg>
